<?xml version="1.0" standalone="no"?>
<!DOCTYPE svg PUBLIC "-//W3C//DTD SVG 1.1//EN" "http://www.w3.org/Graphics/SVG/1.1/DTD/svg11.dtd" >
<svg xmlns="http://www.w3.org/2000/svg" xmlns:xlink="http://www.w3.org/1999/xlink" version="1.1">
<metadata>
Created by FontForge 20161013 at Mon Jul 24 12:32:58 2006
 By ,,,
Copyright (c) Laurenz Brunner, 2004. All rights reserved.
</metadata>
<defs>
<font id="Akkurat-Italic" horiz-adv-x="556" >
  <font-face 
    font-family="Akkurat"
    font-weight="400"
    font-style="italic"
    font-stretch="normal"
    units-per-em="1000"
    panose-1="2 0 5 3 3 0 0 2 0 4"
    ascent="800"
    descent="-200"
    x-height="506"
    cap-height="709"
    bbox="-118 -289 1087 936"
    underline-thickness="50"
    underline-position="-200"
    slope="-11"
    unicode-range="U+0020-FB02"
  />
<missing-glyph horiz-adv-x="588" 
d="M88 698v-698h412v698h-412zM425 74h-262v549h262v-549z" />
    <glyph glyph-name="fi" unicode="fi" horiz-adv-x="625" 
d="M606 722l-18 -100h-99l18 100h99zM562 506l-90 -506h-87l90 506h87zM420 706l-13 -72q-49 18 -86 18q-30 0 -52 -17.5t-27 -45.5l-15 -83h147l-13 -72h-147l-76 -434h-85l77 434h-92l13 72h91l17 96q9 53 51.5 88t106.5 35q42 0 103 -19z" />
    <glyph glyph-name="fl" unicode="fl" horiz-adv-x="643" 
d="M420 706l-13 -72q-49 18 -86 18q-30 0 -52 -17.5t-27 -45.5l-15 -83h147l-13 -72h-147l-76 -434h-85l77 434h-92l13 72h91l17 96q9 53 51.5 88t106.5 35q42 0 103 -19zM596 722l-108 -608q-1 -4 -1 -11q0 -35 38 -35q21 0 40 6l-12 -69q-27 -11 -60 -11q-46 0 -70 27
q-22 25 -22 65q0 14 6 48l104 588h85z" />
    <glyph glyph-name=".notdef" horiz-adv-x="588" 
d="M88 698v-698h412v698h-412zM425 74h-262v549h262v-549z" />
    <glyph glyph-name=".null" horiz-adv-x="0" 
 />
    <glyph glyph-name="nonmarkingreturn" horiz-adv-x="333" 
 />
    <glyph glyph-name="space" unicode=" " horiz-adv-x="222" 
 />
    <glyph glyph-name="exclam" unicode="!" horiz-adv-x="327" 
d="M295 709l-40 -224l-71 -270h-58l23 270l40 224h106zM192 109l-20 -109h-107l20 109h107z" />
    <glyph glyph-name="quotedbl" unicode="&#x22;" horiz-adv-x="440" 
d="M416 709l-22 -123l-49 -153h-53l5 153l22 123h97zM247 709l-22 -123l-49 -153h-53l5 153l22 123h97z" />
    <glyph glyph-name="numbersign" unicode="#" horiz-adv-x="734" 
d="M697 505l-13 -74h-136l-52 -167h126l-14 -73h-135l-60 -191h-75l60 191h-158l-60 -191h-75l59 191h-128l14 73h138l52 167h-129l14 74h138l60 190h75l-59 -190h158l59 190h75l-59 -190h125zM473 431h-158l-52 -167h158z" />
    <glyph glyph-name="dollar" unicode="$" 
d="M549 503h-89q0 48 -25 80.5t-71 42.5l-40 -230l29 -7q65 -16 110 -63t45 -110q0 -100 -75 -160q-68 -55 -179 -57l-16 -92h-59l18 97q-85 15 -137.5 72.5t-52.5 142.5q0 15 1 23h87q-1 -8 -1 -24q0 -109 116 -136l43 243l-36 11q-66 20 -104 62.5t-38 102.5
q0 92 74.5 150t171.5 58l15 91h58l-17 -97q76 -15 124 -69.5t48 -130.5zM306 632q-60 -2 -101.5 -35.5t-41.5 -90.5q0 -61 77 -86l28 -9zM419 204q0 73 -91 101l-19 6l-41 -234q59 1 105 35.5t46 91.5z" />
    <glyph glyph-name="percent" unicode="%" horiz-adv-x="922" 
d="M833 217q0 -108 -57 -171q-54 -59 -126 -59q-68 0 -108.5 43t-40.5 110q0 46 14.5 93.5t42.5 78.5q53 58 126 58q68 0 108.5 -43t40.5 -110zM805 685l-638 -709l-45 44l638 708zM424 570q0 -108 -57 -171q-54 -59 -127 -59q-68 0 -108.5 43t-40.5 110q0 46 14.5 93.5
t42.5 78.5q53 58 127 58q68 0 108.5 -43t40.5 -110zM756 215q0 40 -18.5 64t-57.5 24q-29 0 -53 -19q-25 -20 -37.5 -61t-12.5 -81t19 -64t58 -24q28 0 52 19q25 21 37.5 61.5t12.5 80.5zM347 568q0 40 -19 64t-58 24q-28 0 -52 -19q-25 -20 -38 -61.5t-13 -80.5
q0 -40 19.5 -64t58.5 -24q27 0 51 19q25 21 38 62t13 80z" />
    <glyph glyph-name="ampersand" unicode="&#x26;" horiz-adv-x="733" 
d="M680 395l-11 -73h-73q-9 -49 -32 -100t-54 -87l97 -135h-103l-49 69q-35 -34 -90.5 -58t-119.5 -24q-78 0 -137 49.5t-59 131.5q0 76 46.5 128t127.5 95l-26 37q-35 52 -35 105q0 82 55.5 135.5t144.5 53.5q74 0 118.5 -44.5t44.5 -101.5q0 -61 -33.5 -106.5t-87.5 -73.5
q-40 -20 -60 -31l121 -167q47 65 64 197h151zM441 571q0 29 -23 54t-63 25q-47 0 -76.5 -31.5t-29.5 -79.5q0 -39 27 -78q18 -25 27 -38l46 23q92 46 92 125zM411 130l-146 203q-7 -4 -22.5 -12.5t-23.5 -12.5q-85 -51 -85 -132q0 -49 33.5 -79.5t83.5 -30.5q99 0 160 64z
" />
    <glyph glyph-name="quotesingle" unicode="'" horiz-adv-x="261" 
d="M241 709l-22 -123l-48 -153h-54l6 153l22 123h96z" />
    <glyph glyph-name="parenleft" unicode="(" horiz-adv-x="299" 
d="M351 723q-180 -166 -219 -395q-11 -59 -11 -124q0 -164 82 -322l-59 -27q-95 154 -95 360q0 62 11 126q22 123 86.5 238t159.5 190z" />
    <glyph glyph-name="parenright" unicode=")" horiz-adv-x="298" 
d="M241 415q0 -65 -10 -122q-22 -124 -87 -244.5t-160 -203.5l-47 45q181 182 221 409q11 61 11 127q0 160 -81 311l56 33q97 -148 97 -355z" />
    <glyph glyph-name="asterisk" unicode="*" horiz-adv-x="529" 
d="M509 511l-165 -40l82 -129l-73 -46l-65 137l-114 -137l-61 50l126 127l-148 42l36 76l142 -60l14 165h88l-36 -165l157 60z" />
    <glyph glyph-name="plus" unicode="+" horiz-adv-x="677" 
d="M604 268h-241v-263h-70v263h-240v69h240v247h70v-247h241v-69z" />
    <glyph glyph-name="comma" unicode="," horiz-adv-x="290" 
d="M166 117l-21 -117q-20 -115 -126 -157l-18 47q41 17 58.5 41.5t25.5 68.5h-64l21 117h124z" />
    <glyph glyph-name="hyphen" unicode="-" horiz-adv-x="433" 
d="M363 341l-14 -79h-297l14 79h297z" />
    <glyph glyph-name="period" unicode="." horiz-adv-x="290" 
d="M163 119l-21 -119h-119l21 119h119z" />
    <glyph glyph-name="slash" unicode="/" horiz-adv-x="395" 
d="M456 722l-435 -735h-71l435 735h71z" />
    <glyph glyph-name="zero" unicode="0" 
d="M524 480q0 -63 -16 -152q-19 -104 -46.5 -175.5t-87.5 -119.5q-59 -46 -135 -46q-81 0 -139 51q-68 61 -68 178q0 58 17 152q12 69 23 111.5t39.5 96.5t70.5 87q58 46 135 46q93 0 149 -59q58 -61 58 -170zM438 482q0 66 -30 107.5t-93 41.5q-37 0 -66.5 -18t-46.5 -42
t-31 -64.5t-19.5 -67t-12.5 -67.5q-1 -4 -1.5 -6.5t-0.5 -5.5q-18 -108 -18 -146q0 -66 30 -107.5t93 -41.5q37 0 66.5 18t46.5 42t31 64.5t19.5 67t12.5 67.5q1 4 1.5 6.5t0.5 5.5q18 108 18 146z" />
    <glyph glyph-name="one" unicode="1" 
d="M420 695l-123 -695h-86l104 595l-186 -116l17 98l192 118h82z" />
    <glyph glyph-name="two" unicode="2" 
d="M507 542q0 -96 -90 -181l-294 -281h301l-13 -80h-420l13 76l356 337q60 57 60 124q0 36 -25 63q-31 32 -87 32q-44 0 -80 -30.5t-46 -85.5h-88q11 85 73 139t148 54q93 0 146 -53q46 -48 46 -114z" />
    <glyph glyph-name="three" unicode="3" 
d="M505 537q0 -61 -37 -112.5t-95 -70.5q42 -19 65 -60t23 -89q0 -94 -67.5 -156t-162.5 -62q-91 0 -150 51t-59 141q0 10 2 32h88q-2 -18 -2 -26q0 -56 33.5 -88.5t90.5 -32.5q62 0 101.5 42t39.5 104q0 53 -33.5 82t-87.5 29h-42l14 79h41q65 0 107 32.5t42 95.5
q0 47 -33 75.5t-81 28.5q-52 0 -87 -31.5t-45 -83.5h-86q0 29 17.5 65.5t40.5 59.5q66 67 167 67q80 0 138 -47t58 -125z" />
    <glyph glyph-name="four" unicode="4" 
d="M504 225l-13 -77h-94l-26 -148h-86l26 148h-319l15 89l346 458h95l-356 -470h232l36 207h87l-36 -207h93z" />
    <glyph glyph-name="five" unicode="5" 
d="M537 695l-15 -77h-304l-51 -211q47 51 137 51q86 0 135.5 -53.5t49.5 -139.5q0 -116 -68.5 -197t-182.5 -81q-86 0 -143.5 54t-57.5 143q0 20 1 30h85q-1 -9 -1 -27q0 -56 34.5 -89t89.5 -33q71 0 113.5 58t42.5 132q0 59 -32 93.5t-91 34.5q-69 0 -111 -51l-92 19
l81 344h380z" />
    <glyph glyph-name="six" unicode="6" 
d="M520 530h-87q0 39 -25 67q-30 34 -85 34q-51 0 -88 -34q-35 -31 -53.5 -83.5t-32.5 -125.5q20 31 61.5 50t87.5 19q90 0 143 -55.5t53 -144.5q0 -134 -96 -216q-62 -54 -151 -54q-85 0 -140 54q-63 60 -63 178q0 57 14 139q15 90 37 156t63 114q68 80 172 80
q102 0 155 -70q35 -47 35 -108zM407 249q0 60 -33 96.5t-93 36.5q-53 0 -90 -34q-62 -55 -62 -151q0 -59 33.5 -96t92.5 -37q48 0 87 32q31 26 48 67.5t17 85.5z" />
    <glyph glyph-name="seven" unicode="7" 
d="M554 695l-14 -77l-401 -618h-96l403 618h-357l14 77h451z" />
    <glyph glyph-name="eight" unicode="8" 
d="M518 535q0 -60 -34.5 -110t-90.5 -73q35 -18 58 -59.5t23 -87.5q0 -92 -71 -157q-66 -61 -166 -61q-101 0 -160 60q-54 56 -54 129q0 66 39 120t103 76q-32 22 -51 57.5t-19 76.5q0 82 61 141q65 62 162 62q93 0 151 -58q49 -49 49 -116zM432 529q0 49 -35 77t-84 28
q-56 0 -94 -36.5t-38 -91.5q0 -51 34 -79.5t85 -28.5q56 0 94 38t38 93zM388 208q0 54 -37.5 86t-91.5 32q-64 0 -106.5 -41.5t-42.5 -104.5q0 -54 37.5 -86t92.5 -32q64 0 106 41.5t42 104.5z" />
    <glyph glyph-name="nine" unicode="9" 
d="M511 477q0 -57 -14 -139q-16 -91 -37 -156.5t-62 -113.5q-68 -80 -173 -80q-104 0 -157 72q-34 45 -34 103l1 17h85v-13q0 -42 31 -73q30 -29 80 -29q49 0 87 35q57 50 87 207q-20 -31 -61.5 -49.5t-87.5 -18.5q-96 0 -151 70q-44 55 -44 130q0 134 97 216q62 54 152 54
q123 0 175 -102q26 -52 26 -130zM425 499q0 48 -23 83q-34 50 -100 50q-49 0 -90 -34q-64 -54 -64 -151q0 -49 23 -84q33 -49 102 -49q49 0 89 33q63 53 63 152z" />
    <glyph glyph-name="colon" unicode=":" horiz-adv-x="300" 
d="M238 506l-20 -111h-111l20 111h111zM168 109l-20 -110h-111l20 110h111z" />
    <glyph glyph-name="semicolon" unicode=";" horiz-adv-x="300" 
d="M236 505l-19 -112h-111l19 112h111zM166 110l-19 -110q-10 -57 -36.5 -92t-80.5 -56l-15 44q38 16 54.5 39t23.5 65h-57l19 110h111z" />
    <glyph glyph-name="less" unicode="&#x3c;" horiz-adv-x="468" 
d="M402 36l-48 -49l-319 318l318 317l49 -48l-269 -269z" />
    <glyph glyph-name="equal" unicode="=" horiz-adv-x="688" 
d="M569 344h-482v77h482v-77zM569 134h-482v77h482v-77z" />
    <glyph glyph-name="greater" unicode="&#x3e;" horiz-adv-x="468" 
d="M441 305l-319 -318l-48 49l269 269l-269 269l49 48z" />
    <glyph glyph-name="question" unicode="?" horiz-adv-x="495" 
d="M485 552q0 -82 -63 -148q-23 -24 -70 -54.5t-65 -49.5q-32 -34 -41 -86l-4 -25h-78l4 35q8 76 49 120q20 22 65 51.5t63 47.5q18 17 26 26.5t17 31t9 47.5q0 34 -22 61q-30 36 -90 36q-62 0 -100 -36.5t-48 -95.5h-91q16 89 69 142q67 67 175 67q91 0 147 -54
q48 -46 48 -116zM245 110l-19 -110h-107l19 110h107z" />
    <glyph glyph-name="at" unicode="@" horiz-adv-x="903" 
d="M846 403q0 -66 -22 -128t-64 -103q-31 -30 -61.5 -45t-74.5 -15q-34 0 -58 16.5t-30 39.5q-49 -56 -127 -56q-56 0 -96 40q-46 44 -46 117q0 96 54 168t146 72q31 0 59 -13.5t42 -39.5l25 42h67l-62 -248q-4 -18 -4 -28q0 -39 39 -39q37 0 71 34q61 60 61 186
q0 113 -77 178.5t-192 65.5q-103 0 -184 -51t-124 -133.5t-43 -179.5q0 -134 85 -214.5t221 -80.5q113 0 209 47l-14 -78q-88 -43 -201 -43q-162 0 -273 100.5t-111 268.5q0 188 124.5 313.5t315.5 125.5q146 0 245.5 -87.5t99.5 -231.5zM542 354q0 40 -20.5 63t-59.5 23
q-36 0 -66 -34q-45 -51 -45 -130q0 -41 19.5 -66.5t59.5 -25.5q56 0 84 53.5t28 116.5z" />
    <glyph glyph-name="A" unicode="A" horiz-adv-x="615" 
d="M550 0h-89l-28 168h-309l-86 -168h-94l375 709h104zM418 252l-62 368l-189 -368h251z" />
    <glyph glyph-name="B" unicode="B" horiz-adv-x="668" 
d="M631 536q0 -57 -38.5 -108.5t-91.5 -64.5q39 -15 65.5 -58t26.5 -88q0 -106 -74 -161.5t-181 -55.5h-301l125 709h280q84 0 136.5 -47.5t52.5 -125.5zM537 531q0 45 -31 72t-78 27h-192l-39 -223h198q60 0 101 32.5t41 91.5zM502 221q0 49 -34 78.5t-85 29.5h-200
l-44 -247h208q66 0 110.5 36.5t44.5 102.5z" />
    <glyph glyph-name="C" unicode="C" horiz-adv-x="618" 
d="M611 485h-92q0 69 -45 112q-41 40 -110 40q-72 0 -128 -56q-50 -50 -77.5 -145t-27.5 -178q0 -82 41.5 -134t121.5 -52q74 0 120 46q43 41 55 90h93q-21 -99 -100 -162q-74 -59 -173 -59q-114 0 -181.5 75t-67.5 191q0 107 33.5 216t100.5 174q82 79 195 79
q108 0 177 -72q65 -68 65 -165z" />
    <glyph glyph-name="D" unicode="D" horiz-adv-x="673" 
d="M631 453q0 -105 -32.5 -210t-97.5 -168q-78 -75 -206 -75h-258l125 709h227q111 0 176.5 -72t65.5 -184zM542 448q0 78 -43 128.5t-120 50.5h-142l-96 -545h165q82 0 134 52q49 48 75.5 140.5t26.5 173.5z" />
    <glyph glyph-name="E" unicode="E" horiz-adv-x="618" 
d="M629 709l-14 -82h-378l-39 -216h335l-15 -83h-333l-44 -246h382l-13 -82h-473l124 709h468z" />
    <glyph glyph-name="F" unicode="F" horiz-adv-x="582" 
d="M617 709l-14 -82h-365l-41 -232h328l-15 -82h-328l-55 -313h-90l125 709h455z" />
    <glyph glyph-name="G" unicode="G" horiz-adv-x="661" 
d="M617 491h-90q0 38 -18 71.5t-50 52.5q-37 22 -95 22q-72 0 -129 -57q-51 -51 -77.5 -144.5t-26.5 -177.5q0 -97 50 -144q44 -42 114 -42q91 0 144 63t70 159h-188l15 82h269l-67 -376h-65v69q-32 -40 -81 -61t-103 -21q-105 0 -172 64q-77 72 -77 202q0 110 32.5 217
t100.5 172q83 80 198 80q107 0 177 -68q33 -32 51 -76t18 -87z" />
    <glyph glyph-name="H" unicode="H" horiz-adv-x="716" 
d="M679 709l-125 -709h-90l58 327h-337l-58 -327h-90l125 709h90l-52 -295h337l52 295h90z" />
    <glyph glyph-name="I" unicode="I" horiz-adv-x="291" 
d="M254 709l-125 -709h-92l125 709h92z" />
    <glyph glyph-name="J" unicode="J" horiz-adv-x="507" 
d="M476 709l-93 -528q-15 -88 -73.5 -141t-147.5 -53q-82 0 -133 51q-49 49 -49 128q0 26 5 49h88q-4 -26 -4 -40q0 -103 100 -103q49 0 82.5 33.5t42.5 83.5l92 520h90z" />
    <glyph glyph-name="K" unicode="K" horiz-adv-x="662" 
d="M687 709l-279 -270l178 -439h-98l-149 372l-176 -171l-36 -201h-90l125 709h90l-66 -374l385 374h116z" />
    <glyph glyph-name="L" unicode="L" horiz-adv-x="536" 
d="M483 83l-15 -83h-431l125 709h90l-110 -626h341z" />
    <glyph glyph-name="M" unicode="M" horiz-adv-x="879" 
d="M842 709l-125 -709h-87l108 598l-324 -588h-70l-117 593l-103 -603h-87l125 709h125l110 -577l313 577h132z" />
    <glyph glyph-name="N" unicode="N" horiz-adv-x="734" 
d="M697 709l-125 -709h-102l-243 580l-100 -580h-90l125 709h102l243 -582l100 582h90z" />
    <glyph glyph-name="O" unicode="O" horiz-adv-x="655" 
d="M613 456q0 -108 -32.5 -216.5t-99.5 -173.5q-82 -79 -192 -79q-114 0 -181.5 75t-67.5 191q0 107 34 216t101 174q82 79 191 79q116 0 181.5 -75.5t65.5 -190.5zM521 451q0 82 -40.5 134t-119.5 52q-68 0 -124 -56q-50 -50 -78 -145t-28 -178q0 -82 41.5 -134t121.5 -52
q70 0 125 55q50 50 76 144.5t26 179.5z" />
    <glyph glyph-name="P" unicode="P" horiz-adv-x="623" 
d="M626 526q0 -116 -74.5 -183t-191.5 -67h-185l-48 -276h-90l125 709h257q89 0 148 -48t59 -135zM533 519q0 55 -37 82t-94 27h-164l-48 -272h173q77 0 123.5 43.5t46.5 119.5z" />
    <glyph glyph-name="Q" unicode="Q" horiz-adv-x="655" 
d="M613 456q0 -107 -33 -215.5t-99 -174.5l-4 -4l55 -83l-65 -45l-54 83q-57 -30 -124 -30q-114 0 -181.5 75t-67.5 191q0 107 34 216t101 174q82 79 191 79q116 0 181.5 -75.5t65.5 -190.5zM521 451q0 82 -40.5 134t-119.5 52q-68 0 -124 -56q-50 -50 -78 -145t-28 -178
q0 -82 41.5 -134t121.5 -52q41 0 73 17l-69 106l63 45l67 -103q46 52 69.5 142.5t23.5 171.5z" />
    <glyph glyph-name="R" unicode="R" horiz-adv-x="662" 
d="M635 521q0 -97 -65 -157q-41 -38 -104 -55l97 -309h-94l-92 297h-9h-189l-52 -297h-90l125 709h267q92 0 149 -53t57 -135zM541 521q0 49 -33 78t-92 29h-178l-44 -251h184q77 0 120 37.5t43 106.5z" />
    <glyph glyph-name="S" unicode="S" horiz-adv-x="629" 
d="M595 496h-93q0 43 -21 77q-41 66 -136 66q-71 0 -115 -40q-40 -35 -40 -85q0 -76 89 -97l113 -28q76 -19 120 -67t44 -115q0 -89 -58 -145q-75 -75 -208 -75q-142 0 -216 90q-53 66 -53 159h93q0 -66 36 -109q49 -58 151 -58q80 0 126 45q35 33 35 82q0 37 -25 65.5
t-75 41.5l-108 27q-72 18 -114.5 61.5t-42.5 114.5q0 101 87 164q70 51 170 51q131 0 198 -89q43 -57 43 -136z" />
    <glyph glyph-name="T" unicode="T" horiz-adv-x="536" 
d="M586 709l-15 -83h-211l-109 -626h-91l110 626h-211l15 83h512z" />
    <glyph glyph-name="U" unicode="U" horiz-adv-x="692" 
d="M670 709l-83 -471q-20 -114 -92.5 -182.5t-185.5 -68.5q-108 0 -174.5 61t-66.5 163q0 34 6 67l76 431h90l-78 -441q-5 -30 -5 -54q0 -70 41.5 -106t115.5 -36t122 46.5t61 121.5l83 469h90z" />
    <glyph glyph-name="V" unicode="V" horiz-adv-x="568" 
d="M628 709l-366 -709h-91l-114 709h88l89 -597l297 597h97z" />
    <glyph glyph-name="W" unicode="W" horiz-adv-x="854" 
d="M886 709l-266 -709h-91l-66 572l-259 -572h-99l-18 709h84l11 -575l261 565h80l68 -562l210 572h85z" />
    <glyph glyph-name="X" unicode="X" horiz-adv-x="580" 
d="M625 709l-283 -351l161 -358h-95l-129 291l-229 -291h-103l287 358l-158 351h95l127 -287l226 287h101z" />
    <glyph glyph-name="Y" unicode="Y" horiz-adv-x="555" 
d="M618 709l-313 -422l-50 -287h-91l52 287l-161 422h91l127 -337l244 337h101z" />
    <glyph glyph-name="Z" unicode="Z" horiz-adv-x="612" 
d="M613 709l-16 -90l-495 -537h410l-15 -82h-516l16 89l493 537h-395l15 83h503z" />
    <glyph glyph-name="bracketleft" unicode="[" horiz-adv-x="307" 
d="M363 757l-11 -62h-119l-132 -747h119l-11 -62h-188l154 871h188z" />
    <glyph glyph-name="backslash" unicode="\" horiz-adv-x="396" 
d="M311 -13h-66l-175 735h66z" />
    <glyph glyph-name="bracketright" unicode="]" horiz-adv-x="307" 
d="M274 757l-154 -871h-188l11 62h118l132 747h-118l11 62h188z" />
    <glyph glyph-name="asciicircum" unicode="^" horiz-adv-x="538" 
d="M483 405h-89l-117 225l-118 -225h-88l168 317h76z" />
    <glyph glyph-name="underscore" unicode="_" horiz-adv-x="541" 
d="M456 -60h-495v60h495v-60z" />
    <glyph glyph-name="grave" unicode="`" horiz-adv-x="236" 
d="M266 598l-35 -45l-168 99l54 69z" />
    <glyph glyph-name="a" unicode="a" horiz-adv-x="567" 
d="M509 506l-89 -506h-65v75q-21 -38 -64 -63t-86 -25q-76 0 -123 50q-56 59 -56 166q0 71 24.5 138.5t71.5 113.5q66 64 154 64q42 0 79 -19q41 -21 59 -59l25 65h70zM386 314q0 50 -19 83q-29 49 -86 49q-53 0 -96 -43q-35 -36 -53.5 -92t-18.5 -108q0 -72 32 -109
q29 -34 73 -34q50 0 89.5 41t59 98t19.5 115z" />
    <glyph glyph-name="b" unicode="b" horiz-adv-x="583" 
d="M520 303q0 -74 -27 -145.5t-76 -116.5q-59 -54 -143 -54q-45 0 -87 22t-63 62l-25 -71h-71l127 722h85l-46 -265q54 62 143 62q41 0 78 -17.5t60 -47.5q45 -60 45 -151zM433 303q0 60 -29 101.5t-87 41.5q-41 0 -74 -25q-59 -44 -79 -127q-12 -50 -12 -88
q0 -62 29.5 -104t90.5 -42q50 0 89 37q36 34 54 91t18 115z" />
    <glyph glyph-name="c" unicode="c" horiz-adv-x="521" 
d="M473 339q0 -3 -0.5 -8t-0.5 -8h-87q0 2 0.5 5.5t0.5 5.5q0 50 -30 81t-80 31q-55 0 -96 -43q-34 -35 -50.5 -91.5t-16.5 -113.5q0 -70 38 -107q33 -31 82 -31q46 0 79 27t48 72h85q-12 -75 -74 -123.5t-142 -48.5q-90 0 -146.5 57.5t-56.5 150.5q0 81 26 152.5
t85.5 121.5t142.5 50t138 -48.5t55 -131.5z" />
    <glyph glyph-name="d" unicode="d" horiz-adv-x="583" 
d="M562 722l-127 -722h-71v64q-25 -38 -66 -57.5t-86 -19.5q-82 0 -134 65q-48 59 -48 151q0 68 23.5 134t67.5 112q67 70 162 70q45 0 86 -21.5t57 -61.5l50 286h86zM397 300q0 63 -27 104.5t-88 41.5q-48 0 -88 -38q-37 -35 -56.5 -91.5t-19.5 -113.5q0 -60 28 -101.5
t86 -41.5q41 0 76 27q57 43 77 125q12 50 12 88z" />
    <glyph glyph-name="e" unicode="e" horiz-adv-x="539" 
d="M483 308q0 -42 -10 -82h-359q-1 -9 -1 -27q0 -63 34 -101t94 -38q39 0 70.5 22t48.5 60h88q-23 -72 -81.5 -113.5t-134.5 -41.5q-115 0 -171 90q-35 58 -35 134q0 68 24.5 132.5t69.5 108.5q67 67 165 67q89 0 143 -58q55 -59 55 -153zM397 318q0 55 -31 92t-86 37
q-57 0 -102 -47q-36 -36 -53 -101h271q1 7 1 19z" />
    <glyph glyph-name="f" unicode="f" horiz-adv-x="362" 
d="M420 706l-13 -72q-49 18 -86 18q-30 0 -52 -17.5t-27 -45.5l-15 -83h147l-13 -72h-147l-76 -434h-85l77 434h-92l13 72h91l17 96q9 53 51.5 88t106.5 35q42 0 103 -19z" />
    <glyph glyph-name="g" unicode="g" horiz-adv-x="526" 
d="M527 552l-12 -69q-9 3 -26 3q-42 0 -58 -32q34 -41 34 -100q0 -90 -69 -149q-55 -47 -142 -47q-50 0 -87 17q-30 -7 -48 -27q-12 -12 -12 -29q0 -15 12 -25.5t32 -12.5l145 -15q65 -7 105.5 -41.5t40.5 -87.5q0 -63 -45 -108q-65 -64 -209 -64q-117 0 -173 60
q-35 37 -35 89q0 39 25.5 73.5t64.5 49.5q-39 27 -39 66q0 45 36 80q16 15 48 30q-46 48 -46 113q0 90 72 148q56 45 138 45q62 0 107 -27q34 64 105 64q20 0 36 -4zM380 352q0 46 -30 72t-77 26q-53 0 -86.5 -36.5t-33.5 -87.5q0 -47 29.5 -73.5t76.5 -26.5q52 0 86.5 36.5
t34.5 89.5zM357 -69q0 56 -87 65l-128 14q-38 -6 -61.5 -28t-23.5 -59q0 -27 21 -50q35 -36 115 -36q101 0 141 40q23 23 23 54z" />
    <glyph glyph-name="h" unicode="h" horiz-adv-x="575" 
d="M496 382q0 -21 -8 -72l-55 -310h-85l54 304q7 38 7 56q0 42 -19 61q-23 23 -66 23q-35 0 -68 -22t-54 -54q-33 -50 -45 -121l-44 -247h-85l127 722h85l-49 -279q28 35 71 55.5t88 20.5q71 0 111 -40q35 -35 35 -97z" />
    <glyph glyph-name="i" unicode="i" horiz-adv-x="269" 
d="M249 722l-18 -100h-99l18 100h99zM205 506l-90 -506h-87l90 506h87z" />
    <glyph glyph-name="j" unicode="j" horiz-adv-x="279" 
d="M256 722l-18 -100h-99l18 100h99zM213 506l-106 -600q-10 -57 -44 -88.5t-87 -31.5q-47 0 -94 25l12 66q31 -18 65 -18q53 0 63 54l105 593h86z" />
    <glyph glyph-name="k" unicode="k" horiz-adv-x="538" 
d="M533 506q-92 -85 -218 -202l148 -304h-91l-120 246q-77 -73 -114 -107l-25 -139h-85l128 722h85l-82 -465l267 249h107z" />
    <glyph glyph-name="l" unicode="l" horiz-adv-x="287" 
d="M240 722l-108 -608q-1 -4 -1 -11q0 -35 38 -35q21 0 40 6l-12 -69q-27 -11 -60 -11q-46 0 -70 27q-22 25 -22 65q0 14 6 48l104 588h85z" />
    <glyph glyph-name="m" unicode="m" horiz-adv-x="862" 
d="M331 0l57 322q4 21 4 44q0 77 -82 77q-41 0 -82 -36q-49 -42 -67 -138l-48 -269h-85l89 506h69v-66q51 79 152 79q53 0 89 -25.5t45 -68.5q26 41 71.5 67.5t99.5 26.5q76 0 115 -52q25 -32 25 -82q0 -25 -4 -46l-60 -339h-85l57 322q4 21 4 44q0 77 -82 77q-41 0 -82 -36
q-49 -42 -67 -138l-48 -269h-85z" />
    <glyph glyph-name="n" unicode="n" horiz-adv-x="575" 
d="M496 382q0 -21 -8 -72l-55 -310h-85l54 304q7 38 7 56q0 42 -19 61q-23 23 -66 23q-35 0 -68 -22t-54 -54q-33 -50 -45 -121l-44 -247h-85l89 506h69v-70q27 38 72.5 60.5t91.5 22.5q71 0 111 -40q35 -35 35 -97z" />
    <glyph glyph-name="o" unicode="o" horiz-adv-x="542" 
d="M480 308q0 -59 -15.5 -114.5t-45.5 -102.5t-80.5 -75.5t-113.5 -28.5q-94 0 -150 67q-49 58 -49 144q0 59 15.5 114.5t45.5 102.5t80.5 75.5t113.5 28.5q94 0 150 -67q49 -58 49 -144zM393 306q0 60 -30 100t-89 40q-56 0 -94.5 -43t-52.5 -95.5t-14 -107.5
q0 -60 30 -100t89 -40q56 0 94.5 43t52.5 95.5t14 107.5z" />
    <glyph glyph-name="p" unicode="p" horiz-adv-x="580" 
d="M518 303q0 -77 -25.5 -147t-82.5 -119.5t-135 -49.5q-46 0 -87.5 21.5t-62.5 62.5l-50 -288h-84l127 723h70v-60q24 35 64 54t84 19q40 0 77 -18t60 -49q45 -60 45 -149zM431 303q0 61 -27.5 102.5t-85.5 41.5q-44 0 -77 -25q-68 -51 -84 -176q-3 -20 -3 -40
q0 -63 29 -104.5t90 -41.5q48 0 88 38q70 66 70 205z" />
    <glyph glyph-name="q" unicode="q" horiz-adv-x="572" 
d="M514 506l-127 -722h-86l47 265q-49 -62 -142 -62q-82 0 -134 65q-46 57 -46 151q0 76 27.5 146.5t86.5 120t137 49.5q45 0 85 -22.5t55 -61.5l25 71h72zM390 300q0 64 -27 105t-87 41q-47 0 -88 -39q-37 -35 -56 -91t-19 -113q0 -61 27.5 -102.5t85.5 -41.5q42 0 77 27
q54 41 75 126q12 50 12 88z" />
    <glyph glyph-name="r" unicode="r" horiz-adv-x="383" 
d="M392 505l-14 -83q-24 9 -53 9q-47 0 -88 -31q-60 -46 -81 -158l-43 -242h-85l89 506h69v-73q24 39 63.5 59t85.5 20q32 0 57 -7z" />
    <glyph glyph-name="s" unicode="s" horiz-adv-x="511" 
d="M458 354h-86q0 32 -20 57q-30 38 -92 38q-56 0 -86 -33q-20 -22 -20 -50q0 -24 16 -39t38 -20q59 -13 118 -29q47 -12 76 -45t29 -79q0 -74 -58 -121q-56 -46 -146 -46q-121 0 -179 73q-32 40 -32 92v18h85v-14q0 -38 33 -67q35 -31 98 -31q52 0 87 30q26 23 26 55
q0 50 -64 65q-14 3 -96 23q-50 12 -78 39q-36 34 -37 82q-1 74 59 123q55 44 139 44q51 0 97 -20.5t69 -60.5q24 -42 24 -84z" />
    <glyph glyph-name="t" unicode="t" horiz-adv-x="383" 
d="M376 506l-14 -73h-148l-47 -268q-5 -30 -5 -46q0 -52 63 -52q43 0 86 19l-13 -71q-45 -22 -103 -22t-91 36q-28 31 -28 79q0 24 5 52l48 273h-100l13 73h100l23 129l90 26l-28 -155h149z" />
    <glyph glyph-name="u" unicode="u" horiz-adv-x="574" 
d="M509 506l-89 -506h-70v65q-24 -37 -65.5 -57.5t-83.5 -20.5q-64 0 -105 36q-47 41 -47 117q0 26 4 50l56 316h85l-55 -311q-3 -19 -3 -38q0 -44 24 -70q23 -25 67 -25q47 0 88 43q47 52 65 154l44 247h85z" />
    <glyph glyph-name="v" unicode="v" horiz-adv-x="475" 
d="M489 506l-272 -506h-92l-99 506h84l75 -406l211 406h93z" />
    <glyph glyph-name="w" unicode="w" horiz-adv-x="760" 
d="M754 506l-226 -506h-80l-65 385l-197 -385h-83l-40 506h83l27 -384l193 378h69l64 -380l167 386h88z" />
    <glyph glyph-name="x" unicode="x" horiz-adv-x="496" 
d="M502 506l-222 -253l138 -253h-92l-104 201l-165 -201h-102l220 261l-127 245h91l98 -191l160 191h105z" />
    <glyph glyph-name="y" unicode="y" horiz-adv-x="497" 
d="M511 506l-347 -633q-48 -87 -130 -87q-51 0 -98 31l12 66q39 -24 74 -24q43 0 65 40l59 107l-111 500h89l82 -396l211 396h94z" />
    <glyph glyph-name="z" unicode="z" horiz-adv-x="492" 
d="M470 506l-14 -75l-350 -357h294l-14 -74h-400l14 75l350 357h-287l13 74h394z" />
    <glyph glyph-name="braceleft" unicode="{" horiz-adv-x="345" 
d="M401 758l-11 -63h-26q-52 0 -73.5 -24t-31.5 -78l-29 -161q-8 -43 -38 -73t-75 -37v-2q40 -10 60 -40t13 -72l-26 -153q-4 -26 -4 -38q0 -47 23.5 -60t74.5 -13l-11 -63h-27q-130 0 -130 123q0 27 4 47l25 142q7 42 -13 63q-28 30 -72 30l13 72q36 -2 72 19.5t42 55.5
l32 173q15 82 58.5 117t123.5 35h26z" />
    <glyph glyph-name="bar" unicode="|" horiz-adv-x="265" 
d="M167 -119h-69v877h69v-877z" />
    <glyph glyph-name="braceright" unicode="}" horiz-adv-x="345" 
d="M304 353l-13 -72q-44 2 -77 -23t-40 -65l-26 -147q-15 -90 -55 -127.5t-130 -37.5h-26l11 63h26q50 0 73 26t32 76l29 161q8 43 40 74t77 38v2q-92 23 -75 125l24 138q11 64 -8.5 87.5t-85.5 23.5l11 63h27q156 0 129 -155l-28 -157q-7 -47 11 -66q25 -27 74 -27z" />
    <glyph glyph-name="asciitilde" unicode="~" horiz-adv-x="635" 
d="M546 311q-45 -46 -77 -62t-70 -16q-47 0 -117 34q-54 26 -79 26q-24 0 -45.5 -9t-51.5 -40l-49 56q44 46 76 62t71 16q36 0 80 -17q12 -5 37.5 -16.5t38.5 -16.5q21 -8 39 -8q25 0 46 9t51 39z" />
    <glyph glyph-name="nbspace" unicode="&#xa0;" horiz-adv-x="222" 
 />
    <glyph glyph-name="exclamdown" unicode="&#xa1;" horiz-adv-x="327" 
d="M262 503l-20 -109h-107l20 109h107zM201 288l-23 -270l-40 -224h-106l40 224l71 270h58z" />
    <glyph glyph-name="cent" unicode="&#xa2;" 
d="M509 437q0 -3 -0.5 -8t-0.5 -8h-87q0 2 0.5 5.5t0.5 5.5q0 40 -19.5 68.5t-54.5 38.5l-68 -381q42 4 72 30.5t44 68.5h85q-12 -74 -73.5 -122.5t-140.5 -49.5l-15 -85h-61l16 92q-67 17 -106 70.5t-39 130.5q0 58 14.5 112.5t42.5 101t75.5 76.5t106.5 34l16 92h61
l-17 -96q66 -12 107 -58.5t41 -117.5zM287 542q-40 -8 -71 -41q-34 -35 -50.5 -91.5t-16.5 -113.5q0 -70 38 -107q17 -16 34 -22z" />
    <glyph glyph-name="sterling" unicode="&#xa3;" 
d="M538 555q0 -15 -3 -28h-85q3 21 3 22q0 41 -24 63.5t-67 22.5q-46 0 -75 -33.5t-37 -76.5l-21 -121h161l-13 -73h-160l-32 -179q-12 -63 -55 -74v-2h206q38 0 61 22.5t30 58.5h84q-9 -76 -59 -116.5t-132 -40.5h-325l14 79q77 1 91 80q5 28 15 86t15 86h-80l13 73h80
l21 121q14 84 69.5 134.5t137.5 50.5q74 0 120.5 -43.5t46.5 -111.5z" />
    <glyph glyph-name="currency" unicode="&#xa4;" 
d="M525 52l-64 -64l-70 78q-58 -41 -129 -41q-69 0 -129 41l-69 -78l-65 64l79 68q-42 60 -42 134t42 134l-79 65l66 66l67 -77q58 40 130 40t129 -40l69 78l65 -67l-78 -65q42 -60 42 -134t-42 -134zM407 254q0 64 -39.5 107t-105.5 43q-71 0 -108 -41.5t-37 -108.5
q0 -62 39 -106.5t106 -44.5q68 0 106.5 42.5t38.5 108.5z" />
    <glyph glyph-name="yen" unicode="&#xa5;" 
d="M604 695l-234 -313h132l-11 -61h-176l-16 -91h176l-10 -61h-176l-30 -169h-86l30 169h-164l10 61h165l16 91h-165l11 61h121l-123 313h89l120 -309l222 309h99z" />
    <glyph glyph-name="brokenbar" unicode="&#xa6;" horiz-adv-x="272" 
d="M182 450h-76v309h76v-309zM182 -50h-76v308h76v-308z" />
    <glyph glyph-name="section" unicode="&#xa7;" horiz-adv-x="558" 
d="M509 569q0 -14 -4 -38h-83q3 13 3 28q0 36 -25 58t-63 22q-46 0 -76 -27t-30 -73q0 -41 29 -70l172 -171q45 -43 45 -109q0 -100 -113 -161q24 -34 24 -84q0 -85 -56.5 -136t-142.5 -51q-67 0 -115 40.5t-48 101.5q0 20 3 38h83q-2 -9 -2 -28q0 -37 25 -58.5t63 -21.5
q44 0 75 28t31 72q0 41 -29 70l-172 171q-45 43 -45 109q0 100 113 161q-24 34 -24 84q0 85 56.5 136t141.5 51q65 0 114.5 -39.5t49.5 -102.5zM392 173q0 39 -24 63l-156 158q-69 -34 -69 -98q0 -40 24 -64l156 -158q69 34 69 99z" />
    <glyph glyph-name="dieresis" unicode="&#xa8;" horiz-adv-x="286" 
d="M336 691l-16 -92h-92l16 92h92zM160 691l-16 -92h-92l16 92h92z" />
    <glyph glyph-name="copyright" unicode="&#xa9;" horiz-adv-x="858" 
d="M790 355q0 -155 -103.5 -261.5t-257.5 -106.5t-257.5 106t-103.5 261t103.5 261.5t257.5 106.5t257.5 -106t103.5 -261zM723 355q0 133 -81.5 218t-212.5 85t-212.5 -85.5t-81.5 -218.5t81.5 -218t212.5 -85t212.5 85.5t81.5 218.5zM601 300q-6 -64 -52.5 -104
t-113.5 -40q-91 0 -141 72q-38 54 -38 126q0 83 48.5 140.5t130.5 57.5q69 0 115 -40.5t51 -103.5h-76q-5 39 -29.5 59t-60.5 20q-46 0 -74 -35q-30 -37 -30 -98q0 -62 29 -98q28 -35 75 -35q36 0 60.5 20t29.5 59h76z" />
    <glyph glyph-name="ordfeminine" unicode="&#xaa;" horiz-adv-x="480" 
d="M426 315q-19 -10 -44 -10t-40.5 16t-17.5 40q-37 -60 -121 -60q-63 0 -98.5 35.5t-35.5 84.5q0 45 33.5 81t105.5 41l113 7v26q0 42 -18 58q-21 19 -62 19q-46 0 -68 -22q-18 -18 -18 -48h-67q1 63 44.5 94.5t108.5 31.5q106 0 137 -75q10 -22 10 -60v-186q0 -24 20 -24
l18 2v-51zM321 475v21l-100 -6q-34 -2 -58 -18.5t-24 -48.5q0 -27 18 -45.5t56 -18.5q47 0 76 30q32 32 32 86z" />
    <glyph glyph-name="guillemotleft" unicode="&#xab;" horiz-adv-x="546" 
d="M521 485l-151 -189l83 -195l-61 -34l-125 233l204 228zM288 485l-152 -189l84 -195l-62 -34l-125 233l205 228z" />
    <glyph glyph-name="logicalnot" unicode="&#xac;" horiz-adv-x="621" 
d="M538 99h-78v165h-407v77h485v-242z" />
    <glyph glyph-name="registered" unicode="&#xae;" horiz-adv-x="858" 
d="M790 355q0 -155 -103.5 -261.5t-257.5 -106.5t-257.5 106t-103.5 261t103.5 261.5t257.5 106.5t257.5 -106t103.5 -261zM723 355q0 133 -81.5 218t-212.5 85t-212.5 -85.5t-81.5 -218.5t81.5 -218t212.5 -85t212.5 85.5t81.5 218.5zM583 169h-73l-64 141h-75v-141h-67
v383h141q58 0 97 -32t39 -88q0 -80 -69 -111zM511 432q0 28 -18.5 43t-47.5 15h-75v-118h75q66 0 66 60z" />
    <glyph glyph-name="macron" unicode="&#xaf;" horiz-adv-x="292" 
d="M342 676l-12 -68h-278l12 68h278z" />
    <glyph glyph-name="degree" unicode="&#xb0;" horiz-adv-x="457" 
d="M430 558q0 -71 -47.5 -117.5t-118.5 -46.5t-118 46t-47 118t47 118t118 46t118.5 -46.5t47.5 -117.5zM355 558q0 41 -26 67t-65 26t-64.5 -26t-25.5 -67t25.5 -67t64.5 -26t65 26t26 67z" />
    <glyph glyph-name="plusminus" unicode="&#xb1;" horiz-adv-x="565" 
d="M502 332h-184v-187h-70v187h-185v70h185v185h70v-185h184v-70zM502 0h-439v69h439v-69z" />
    <glyph glyph-name="twosuperior" unicode="&#xb2;" horiz-adv-x="457" 
d="M396 615q0 -31 -16.5 -59t-34 -43t-49.5 -38l-91 -66h166l-11 -66h-274l11 63l176 130q51 38 51 72q0 21 -15.5 33t-36.5 12q-32 0 -53.5 -19t-27.5 -51h-71q12 61 55.5 97t105.5 36q48 0 81.5 -28t33.5 -73z" />
    <glyph glyph-name="threesuperior" unicode="&#xb3;" horiz-adv-x="426" 
d="M398 620q0 -32 -20 -57t-52 -33q21 -6 35.5 -27.5t14.5 -41.5q0 -61 -45.5 -93t-109.5 -32q-52 0 -89.5 30t-37.5 80q0 10 1 15h67q-1 -4 -1 -13q0 -26 20 -41q18 -14 46 -14q31 0 54.5 15.5t23.5 44.5q0 49 -85 49l10 57q21 0 33 1t29 5.5t25.5 17t8.5 31.5q0 21 -16 34
t-41 13q-66 0 -78 -63h-71q11 58 49 87q41 32 106 32q68 0 102 -41q21 -26 21 -56z" />
    <glyph glyph-name="acute" unicode="&#xb4;" horiz-adv-x="240" 
d="M279 650l-202 -99l-25 50l192 122z" />
    <glyph glyph-name="mu" unicode="&#xb5;" horiz-adv-x="586" 
d="M487 0h-74l-7 77q-19 -42 -61 -65.5t-89 -23.5q-55 0 -88 26v-214h-85v374v273v59h85v-59v-261q0 -60 25 -90.5t83 -30.5q48 0 84 38q42 43 42 140v263h85v-506z" />
    <glyph glyph-name="paragraph" unicode="&#xb6;" horiz-adv-x="653" 
d="M637 709l-12 -69h-69l-134 -765h-73l134 765h-112l-134 -765h-75l80 457q-65 0 -111.5 48t-46.5 115q0 94 64.5 154t164.5 60h324z" />
    <glyph glyph-name="periodcentered" unicode="&#xb7;" horiz-adv-x="294" 
d="M208 366l-21 -119h-118l21 119h118z" />
    <glyph glyph-name="cedilla" unicode="&#xb8;" horiz-adv-x="170" 
d="M114 -59l-100 -176l-81 41l103 135h78z" />
    <glyph glyph-name="onesuperior" unicode="&#xb9;" horiz-adv-x="336" 
d="M279 709l-65 -364h-70l50 282l-103 -63l14 78l109 67h65z" />
    <glyph glyph-name="ordmasculine" unicode="&#xba;" horiz-adv-x="480" 
d="M435 505q0 -105 -54 -159q-46 -46 -117 -46q-70 0 -116 46q-55 55 -55 159q0 103 55 158q46 46 116 46q71 0 117 -46q54 -54 54 -158zM365 505q0 83 -34 118q-24 26 -67 26q-42 0 -66 -26q-34 -35 -34 -118q0 -84 34 -119q24 -26 66 -26q43 0 67 26q34 35 34 119z" />
    <glyph glyph-name="guillemotright" unicode="&#xbb;" horiz-adv-x="546" 
d="M497 296l-204 -228l-50 43l151 189l-85 194l62 33zM264 296l-205 -228l-50 43l152 189l-86 194l62 33z" />
    <glyph glyph-name="onequarter" unicode="&#xbc;" horiz-adv-x="861" 
d="M755 134l-11 -59h-59l-13 -75h-68l13 75h-179l12 69l184 225h81l-190 -235h103l13 78h68l-13 -78h59zM767 685l-641 -706l-47 42l639 704zM307 709l-65 -364h-70l50 282l-103 -63l14 78l109 67h65z" />
    <glyph glyph-name="onehalf" unicode="&#xbd;" horiz-adv-x="893" 
d="M782 272q0 -31 -16.5 -59t-34 -43t-49.5 -38l-91 -66h166l-11 -66h-274l11 63l176 130q51 38 51 72q0 21 -15.5 33t-36.5 12q-32 0 -53.5 -19t-27.5 -51h-71q12 61 55.5 97t105.5 36q48 0 81.5 -28t33.5 -73zM767 685l-641 -706l-47 42l639 704zM307 709l-65 -364h-70
l50 282l-103 -63l14 78l109 67h65z" />
    <glyph glyph-name="threequarters" unicode="&#xbe;" horiz-adv-x="912" 
d="M806 134l-11 -59h-59l-13 -75h-68l13 75h-179l12 69l184 225h81l-190 -235h103l13 78h68l-13 -78h59zM818 685l-641 -706l-47 42l639 704zM398 620q0 -32 -20 -57t-52 -33q21 -6 35.5 -27.5t14.5 -41.5q0 -61 -45.5 -93t-109.5 -32q-52 0 -89.5 30t-37.5 80q0 10 1 15h67
q-1 -4 -1 -13q0 -26 20 -41q18 -14 46 -14q31 0 54.5 15.5t23.5 44.5q0 49 -85 49l10 57q21 0 33 1t29 5.5t25.5 17t8.5 31.5q0 21 -16 34t-41 13q-66 0 -78 -63h-71q11 58 49 87q41 32 106 32q68 0 102 -41q21 -26 21 -56z" />
    <glyph glyph-name="questiondown" unicode="&#xbf;" horiz-adv-x="495" 
d="M376 506l-19 -110h-107l19 110h107zM449 -7q-16 -89 -69 -142q-67 -67 -175 -67q-91 0 -147 54q-48 46 -48 116q0 82 63 148q23 24 70 54.5t65 49.5q32 34 41 86l4 25h78l-4 -35q-8 -76 -49 -120q-20 -22 -65 -51.5t-63 -47.5q-18 -17 -26 -26.5t-17 -31t-9 -47.5
q0 -34 22 -61q30 -36 90 -36q62 0 100 36.5t48 95.5h91z" />
    <glyph glyph-name="Agrave" unicode="&#xc0;" horiz-adv-x="615" 
d="M486 802l-35 -45l-168 99l54 69zM550 0h-89l-28 168h-309l-86 -168h-94l375 709h104zM418 252l-62 368l-189 -368h251z" />
    <glyph glyph-name="Aacute" unicode="&#xc1;" horiz-adv-x="615" 
d="M495 853l-202 -99l-25 50l192 122zM550 0h-89l-28 168h-309l-86 -168h-94l375 709h104zM418 252l-62 368l-189 -368h251z" />
    <glyph glyph-name="Acircumflex" unicode="&#xc2;" horiz-adv-x="615" 
d="M525 798l-50 -45l-88 115l-127 -115l-40 45l148 131h55zM550 0h-89l-28 168h-309l-86 -168h-94l375 709h104zM418 252l-62 368l-189 -368h251z" />
    <glyph glyph-name="Atilde" unicode="&#xc3;" horiz-adv-x="615" 
d="M548 834q-52 -54 -111 -54q-32 0 -68.5 21t-55.5 21q-33 0 -66 -28l-32 42q58 54 111 54q29 0 65.5 -22t58.5 -22q36 0 68 30zM550 0h-89l-28 168h-309l-86 -168h-94l375 709h104zM418 252l-62 368l-189 -368h251z" />
    <glyph glyph-name="Adieresis" unicode="&#xc4;" horiz-adv-x="615" 
d="M531 881l-16 -92h-92l16 92h92zM355 881l-16 -92h-92l16 92h92zM550 0h-89l-28 168h-309l-86 -168h-94l375 709h104zM418 252l-62 368l-189 -368h251z" />
    <glyph glyph-name="Aring" unicode="&#xc5;" horiz-adv-x="615" 
d="M550 0h-89l-28 168h-309l-86 -168h-94l358 676q-46 35 -46 94q0 48 33 83t88 35t88.5 -35t33.5 -83q0 -34 -18 -63t-50 -44zM437 770q0 26 -16.5 44t-43.5 18t-43.5 -18t-16.5 -44q0 -22 13 -39.5t35 -21.5h24q22 4 35 21.5t13 39.5zM418 252l-62 368l-189 -368h251z" />
    <glyph glyph-name="AE" unicode="&#xc6;" horiz-adv-x="910" 
d="M921 709l-15 -83h-333l-36 -205h286l-15 -84h-286l-45 -253h338l-15 -84h-428l34 189h-252l-116 -189h-101l446 709h538zM483 629h-58l-219 -356h215z" />
    <glyph glyph-name="Ccedilla" unicode="&#xc7;" horiz-adv-x="618" 
d="M611 485h-92q0 69 -45 112q-41 40 -110 40q-72 0 -128 -56q-50 -50 -77.5 -145t-27.5 -178q0 -82 41.5 -134t121.5 -52q74 0 120 46q43 41 55 90h93q-21 -99 -100 -162q-74 -59 -173 -59q-114 0 -181.5 75t-67.5 191q0 107 33.5 216t100.5 174q82 79 195 79
q108 0 177 -72q65 -68 65 -165zM310 -48l-100 -176l-81 41l103 135h78z" />
    <glyph glyph-name="Egrave" unicode="&#xc8;" horiz-adv-x="618" 
d="M511 806l-35 -45l-168 99l54 69zM629 709l-14 -82h-378l-39 -216h335l-15 -83h-333l-44 -246h382l-13 -82h-473l124 709h468z" />
    <glyph glyph-name="Eacute" unicode="&#xc9;" horiz-adv-x="618" 
d="M538 853l-202 -99l-25 50l192 122zM629 709l-14 -82h-378l-39 -216h335l-15 -83h-333l-44 -246h382l-13 -82h-473l124 709h468z" />
    <glyph glyph-name="Ecircumflex" unicode="&#xca;" horiz-adv-x="618" 
d="M559 805l-50 -45l-88 115l-127 -115l-40 45l148 131h55zM629 709l-14 -82h-378l-39 -216h335l-15 -83h-333l-44 -246h382l-13 -82h-473l124 709h468z" />
    <glyph glyph-name="Edieresis" unicode="&#xcb;" horiz-adv-x="618" 
d="M558 881l-16 -92h-92l16 92h92zM382 881l-16 -92h-92l16 92h92zM629 709l-14 -82h-378l-39 -216h335l-15 -83h-333l-44 -246h382l-13 -82h-473l124 709h468z" />
    <glyph glyph-name="Igrave" unicode="&#xcc;" horiz-adv-x="291" 
d="M319 802l-35 -45l-168 99l54 69zM254 709l-125 -709h-92l125 709h92z" />
    <glyph glyph-name="Iacute" unicode="&#xcd;" horiz-adv-x="291" 
d="M324 853l-202 -99l-25 50l192 122zM251 709l-125 -709h-92l125 709h92z" />
    <glyph glyph-name="Icircumflex" unicode="&#xce;" horiz-adv-x="291" 
d="M368 797l-50 -45l-88 115l-127 -115l-40 45l148 131h55zM254 709l-125 -709h-92l125 709h92z" />
    <glyph glyph-name="Idieresis" unicode="&#xcf;" horiz-adv-x="291" 
d="M367 881l-16 -92h-92l16 92h92zM191 881l-16 -92h-92l16 92h92zM251 709l-125 -709h-92l125 709h92z" />
    <glyph glyph-name="Eth" unicode="&#xd0;" horiz-adv-x="673" 
d="M631 453q0 -105 -32.5 -210t-97.5 -168q-78 -75 -206 -75h-258l59 335h-51l12 66h51l54 308h227q111 0 176.5 -72t65.5 -184zM542 448q0 78 -43 128.5t-120 50.5h-142l-40 -226h168l-12 -66h-167l-45 -253h165q82 0 134 52q49 48 75.5 140.5t26.5 173.5z" />
    <glyph glyph-name="Ntilde" unicode="&#xd1;" horiz-adv-x="734" 
d="M600 828q-52 -54 -111 -54q-32 0 -68.5 21t-55.5 21q-33 0 -66 -28l-32 42q58 54 111 54q29 0 65.5 -22t58.5 -22q36 0 68 30zM694 709l-125 -709h-102l-243 580l-100 -580h-90l125 709h102l243 -582l100 582h90z" />
    <glyph glyph-name="Ograve" unicode="&#xd2;" horiz-adv-x="655" 
d="M513 810l-35 -45l-168 99l54 69zM613 456q0 -108 -32.5 -216.5t-99.5 -173.5q-82 -79 -192 -79q-114 0 -181.5 75t-67.5 191q0 107 34 216t101 174q82 79 191 79q116 0 181.5 -75.5t65.5 -190.5zM521 451q0 82 -40.5 134t-119.5 52q-68 0 -124 -56q-50 -50 -78 -145
t-28 -178q0 -82 41.5 -134t121.5 -52q70 0 125 55q50 50 76 144.5t26 179.5z" />
    <glyph glyph-name="Oacute" unicode="&#xd3;" horiz-adv-x="655" 
d="M510 858l-202 -99l-25 50l192 122zM613 456q0 -108 -32.5 -216.5t-99.5 -173.5q-82 -79 -192 -79q-114 0 -181.5 75t-67.5 191q0 107 34 216t101 174q82 79 191 79q116 0 181.5 -75.5t65.5 -190.5zM521 451q0 82 -40.5 134t-119.5 52q-68 0 -124 -56q-50 -50 -78 -145
t-28 -178q0 -82 41.5 -134t121.5 -52q70 0 125 55q50 50 76 144.5t26 179.5z" />
    <glyph glyph-name="Ocircumflex" unicode="&#xd4;" horiz-adv-x="655" 
d="M546 798l-50 -45l-88 115l-127 -115l-40 45l148 131h55zM613 456q0 -108 -32.5 -216.5t-99.5 -173.5q-82 -79 -192 -79q-114 0 -181.5 75t-67.5 191q0 107 34 216t101 174q82 79 191 79q116 0 181.5 -75.5t65.5 -190.5zM521 451q0 82 -40.5 134t-119.5 52q-68 0 -124 -56
q-50 -50 -78 -145t-28 -178q0 -82 41.5 -134t121.5 -52q70 0 125 55q50 50 76 144.5t26 179.5z" />
    <glyph glyph-name="Otilde" unicode="&#xd5;" horiz-adv-x="655" 
d="M574 834q-52 -54 -111 -54q-32 0 -68.5 21t-55.5 21q-33 0 -66 -28l-32 42q58 54 111 54q29 0 65.5 -22t58.5 -22q36 0 68 30zM613 456q0 -108 -32.5 -216.5t-99.5 -173.5q-82 -79 -192 -79q-114 0 -181.5 75t-67.5 191q0 107 34 216t101 174q82 79 191 79
q116 0 181.5 -75.5t65.5 -190.5zM521 451q0 82 -40.5 134t-119.5 52q-68 0 -124 -56q-50 -50 -78 -145t-28 -178q0 -82 41.5 -134t121.5 -52q70 0 125 55q50 50 76 144.5t26 179.5z" />
    <glyph glyph-name="Odieresis" unicode="&#xd6;" horiz-adv-x="655" 
d="M550 883l-16 -92h-92l16 92h92zM374 883l-16 -92h-92l16 92h92zM613 456q0 -108 -32.5 -216.5t-99.5 -173.5q-82 -79 -192 -79q-114 0 -181.5 75t-67.5 191q0 107 34 216t101 174q82 79 191 79q116 0 181.5 -75.5t65.5 -190.5zM521 451q0 82 -40.5 134t-119.5 52
q-68 0 -124 -56q-50 -50 -78 -145t-28 -178q0 -82 41.5 -134t121.5 -52q70 0 125 55q50 50 76 144.5t26 179.5z" />
    <glyph glyph-name="multiply" unicode="&#xd7;" horiz-adv-x="678" 
d="M615 76l-54 -54l-222 222l-222 -222l-54 54l222 222l-222 222l54 54l221 -222l223 222l54 -54l-223 -222z" />
    <glyph glyph-name="Oslash" unicode="&#xd8;" horiz-adv-x="655" 
d="M613 456q0 -109 -32.5 -217t-99.5 -173q-82 -79 -192 -79q-76 0 -136 37l-58 -93l-51 26l65 103q-69 74 -69 193q0 107 34 216t101 174q82 79 191 79q79 0 138 -38l53 84l50 -25l-60 -96q66 -72 66 -191zM456 609q-37 28 -95 28q-68 0 -124 -56q-50 -50 -78 -145
t-28 -178q0 -71 29 -117zM521 451q0 69 -26 114l-294 -466q38 -27 93 -27q70 0 125 55q50 50 76 144.5t26 179.5z" />
    <glyph glyph-name="Ugrave" unicode="&#xd9;" horiz-adv-x="692" 
d="M515 802l-35 -45l-168 99l54 69zM670 709l-83 -471q-25 -144 -132 -211q-62 -40 -148 -40q-119 0 -185 71q-53 58 -53 151q0 40 5 69l76 431h90l-78 -441q-4 -24 -4 -56q0 -68 37 -104q39 -38 118 -38q74 0 122.5 49t61.5 121l83 469h90z" />
    <glyph glyph-name="Uacute" unicode="&#xda;" horiz-adv-x="692" 
d="M538 853l-202 -99l-25 50l192 122zM670 709l-83 -471q-25 -144 -132 -211q-62 -40 -148 -40q-119 0 -185 71q-53 58 -53 151q0 40 5 69l76 431h90l-78 -441q-4 -24 -4 -56q0 -68 37 -104q39 -38 118 -38q74 0 122.5 49t61.5 121l83 469h90z" />
    <glyph glyph-name="Ucircumflex" unicode="&#xdb;" horiz-adv-x="692" 
d="M573 798l-50 -45l-88 115l-127 -115l-40 45l148 131h55zM670 709l-83 -471q-25 -144 -132 -211q-62 -40 -148 -40q-119 0 -185 71q-53 58 -53 151q0 40 5 69l76 431h90l-78 -441q-4 -24 -4 -56q0 -68 37 -104q39 -38 118 -38q74 0 122.5 49t61.5 121l83 469h90z" />
    <glyph glyph-name="Udieresis" unicode="&#xdc;" horiz-adv-x="692" 
d="M568 882l-16 -92h-92l16 92h92zM392 882l-16 -92h-92l16 92h92zM670 709l-83 -471q-25 -144 -132 -211q-62 -40 -148 -40q-119 0 -185 71q-53 58 -53 151q0 40 5 69l76 431h90l-78 -441q-4 -24 -4 -56q0 -68 37 -104q39 -38 118 -38q74 0 122.5 49t61.5 121l83 469h90z
" />
    <glyph glyph-name="Yacute" unicode="&#xdd;" horiz-adv-x="555" 
d="M469 846l-202 -99l-25 50l192 122zM618 709l-313 -422l-50 -287h-91l52 287l-161 422h91l127 -337l244 337h101z" />
    <glyph glyph-name="Thorn" unicode="&#xde;" horiz-adv-x="603" 
d="M579 394q0 -117 -74.5 -184t-191.5 -67h-163l-25 -143h-90l125 710h90l-23 -133h145q89 0 148 -48t59 -135zM486 387q0 55 -37 82t-94 27h-143l-48 -272h152q77 0 123.5 43.5t46.5 119.5z" />
    <glyph glyph-name="germandbls" unicode="&#xdf;" horiz-adv-x="598" 
d="M544 564q0 -64 -37 -115.5t-98 -61.5q58 -12 91.5 -59t33.5 -108q0 -100 -66 -165.5t-168 -65.5q-54 0 -107 17l12 70q41 -12 86 -12q73 0 114.5 43t41.5 116q0 60 -39 94t-97 34h-27l13 74h37q53 0 88 41t35 95q0 46 -27.5 71t-73.5 25q-54 0 -89 -39t-45 -100l-90 -518
h-86l74 427h-86l13 76h86l3 17q16 95 75.5 152t149.5 57q81 0 132 -47t51 -118z" />
    <glyph glyph-name="agrave" unicode="&#xe0;" horiz-adv-x="567" 
d="M416 598l-35 -45l-168 99l54 69zM509 506l-89 -506h-65v75q-21 -38 -64 -63t-86 -25q-76 0 -123 50q-56 59 -56 166q0 71 24.5 138.5t71.5 113.5q66 64 154 64q42 0 79 -19q41 -21 59 -59l25 65h70zM386 314q0 55 -18 83q-30 49 -87 49q-53 0 -96 -43q-35 -36 -53.5 -92
t-18.5 -108q0 -72 32 -109q29 -34 73 -34q50 0 89.5 41t59 98t19.5 115z" />
    <glyph glyph-name="aacute" unicode="&#xe1;" horiz-adv-x="567" 
d="M428 654l-202 -99l-25 50l192 122zM509 506l-89 -506h-65v75q-21 -38 -64 -63t-86 -25q-76 0 -123 50q-56 59 -56 166q0 71 24.5 138.5t71.5 113.5q66 64 154 64q42 0 79 -19q41 -21 59 -59l25 65h70zM386 314q0 55 -18 83q-30 49 -87 49q-53 0 -96 -43
q-35 -36 -53.5 -92t-18.5 -108q0 -72 32 -109q29 -34 73 -34q50 0 89.5 41t59 98t19.5 115z" />
    <glyph glyph-name="acircumflex" unicode="&#xe2;" horiz-adv-x="567" 
d="M465 602l-50 -45l-88 115l-127 -115l-40 45l148 131h55zM509 506l-89 -506h-65v75q-21 -38 -64 -63t-86 -25q-76 0 -123 50q-56 59 -56 166q0 71 24.5 138.5t71.5 113.5q66 64 154 64q42 0 79 -19q41 -21 59 -59l25 65h70zM386 314q0 55 -18 83q-30 49 -87 49
q-53 0 -96 -43q-35 -36 -53.5 -92t-18.5 -108q0 -72 32 -109q29 -34 73 -34q50 0 89.5 41t59 98t19.5 115z" />
    <glyph glyph-name="atilde" unicode="&#xe3;" horiz-adv-x="567" 
d="M493 647q-52 -54 -111 -54q-32 0 -68.5 21t-55.5 21q-33 0 -66 -28l-32 42q58 54 111 54q29 0 65.5 -22t58.5 -22q36 0 68 30zM509 506l-89 -506h-65v75q-21 -38 -64 -63t-86 -25q-76 0 -123 50q-56 59 -56 166q0 71 24.5 138.5t71.5 113.5q66 64 154 64q42 0 79 -19
q41 -21 59 -59l25 65h70zM386 314q0 55 -18 83q-30 49 -87 49q-53 0 -96 -43q-35 -36 -53.5 -92t-18.5 -108q0 -72 32 -109q29 -34 73 -34q50 0 89.5 41t59 98t19.5 115z" />
    <glyph glyph-name="adieresis" unicode="&#xe4;" horiz-adv-x="567" 
d="M470 694l-16 -92h-92l16 92h92zM294 694l-16 -92h-92l16 92h92zM509 506l-89 -506h-65v75q-21 -38 -64 -63t-86 -25q-76 0 -123 50q-56 59 -56 166q0 71 24.5 138.5t71.5 113.5q66 64 154 64q42 0 79 -19q41 -21 59 -59l25 65h70zM386 314q0 55 -18 83q-30 49 -87 49
q-53 0 -96 -43q-35 -36 -53.5 -92t-18.5 -108q0 -72 32 -109q29 -34 73 -34q50 0 89.5 41t59 98t19.5 115z" />
    <glyph glyph-name="aring" unicode="&#xe5;" horiz-adv-x="567" 
d="M441 671q0 -43 -30 -75t-80 -32t-80 32t-30 75t30 75t80 32t80 -32t30 -75zM509 506l-89 -506h-65v75q-21 -38 -64 -63t-86 -25q-76 0 -123 50q-56 59 -56 166q0 71 24.5 138.5t71.5 113.5q66 64 154 64q42 0 79 -19q41 -21 59 -59l25 65h70zM385 671q0 23 -15 39.5
t-39 16.5t-39.5 -16.5t-15.5 -39.5t15.5 -39t39.5 -16t39 16t15 39zM386 314q0 55 -18 83q-30 49 -87 49q-53 0 -96 -43q-35 -36 -53.5 -92t-18.5 -108q0 -72 32 -109q29 -34 73 -34q50 0 89.5 41t59 98t19.5 115z" />
    <glyph glyph-name="ae" unicode="&#xe6;" horiz-adv-x="845" 
d="M788 308q0 -42 -10 -82h-348q-1 -9 -1 -27q0 -63 33 -101t91 -38q38 0 68.5 22t47.5 60h85q-23 -72 -79.5 -113.5t-129.5 -41.5q-55 0 -102.5 28t-69.5 77q-50 -71 -131 -95q-34 -10 -76 -10q-79 0 -123 50q-35 40 -35 84q0 80 56.5 128.5t136.5 48.5h159q7 34 7 62
q0 39 -21 61q-25 27 -68 27q-46 0 -76 -17q-43 -26 -54 -74h-83q17 79 78 120.5t144 41.5q45 0 85.5 -20.5t56.5 -56.5q24 28 48 42q57 35 119 35q87 0 139 -58q53 -59 53 -153zM705 318q0 55 -30.5 92t-83.5 37q-57 0 -99 -45q-34 -37 -51 -103h263q1 7 1 19zM350 231h-140
q-50 0 -82.5 -27t-32.5 -72q0 -33 24.5 -52.5t58.5 -19.5q58 0 102 37q55 46 70 134z" />
    <glyph glyph-name="ccedilla" unicode="&#xe7;" horiz-adv-x="521" 
d="M473 339q0 -3 -0.5 -8t-0.5 -8h-87q0 2 0.5 5.5t0.5 5.5q0 50 -30 81t-80 31q-55 0 -96 -43q-34 -35 -50.5 -91.5t-16.5 -113.5q0 -70 38 -107q33 -31 82 -31q46 0 79 27t48 72h85q-12 -75 -74 -123.5t-142 -48.5q-90 0 -146.5 57.5t-56.5 150.5q0 81 26 152.5
t85.5 121.5t142.5 50t138 -48.5t55 -131.5zM253 -59l-100 -176l-81 41l103 135h78z" />
    <glyph glyph-name="egrave" unicode="&#xe8;" horiz-adv-x="539" 
d="M426 598l-35 -45l-168 99l54 69zM483 308q0 -42 -10 -82h-359q-1 -9 -1 -27q0 -63 34 -101t94 -38q39 0 70.5 22t48.5 60h88q-23 -72 -81.5 -113.5t-134.5 -41.5q-115 0 -171 90q-35 58 -35 134q0 68 24.5 132.5t69.5 108.5q67 67 165 67q89 0 143 -58q55 -59 55 -153z
M397 318q0 55 -31 92t-86 37q-57 0 -102 -47q-36 -36 -53 -101h271q1 7 1 19z" />
    <glyph glyph-name="eacute" unicode="&#xe9;" horiz-adv-x="539" 
d="M443 652l-202 -99l-25 50l192 122zM483 308q0 -42 -10 -82h-359q-1 -9 -1 -27q0 -63 34 -101t94 -38q39 0 70.5 22t48.5 60h88q-23 -72 -81.5 -113.5t-134.5 -41.5q-115 0 -171 90q-35 58 -35 134q0 68 24.5 132.5t69.5 108.5q67 67 165 67q89 0 143 -58q55 -59 55 -153z
M397 318q0 55 -31 92t-86 37q-57 0 -102 -47q-36 -36 -53 -101h271q1 7 1 19z" />
    <glyph glyph-name="ecircumflex" unicode="&#xea;" horiz-adv-x="539" 
d="M469 597l-50 -45l-88 115l-127 -115l-40 45l148 131h55zM483 308q0 -42 -10 -82h-359q-1 -9 -1 -27q0 -63 34 -101t94 -38q39 0 70.5 22t48.5 60h88q-23 -72 -81.5 -113.5t-134.5 -41.5q-115 0 -171 90q-35 58 -35 134q0 68 24.5 132.5t69.5 108.5q67 67 165 67
q89 0 143 -58q55 -59 55 -153zM397 318q0 55 -31 92t-86 37q-57 0 -102 -47q-36 -36 -53 -101h271q1 7 1 19z" />
    <glyph glyph-name="edieresis" unicode="&#xeb;" horiz-adv-x="539" 
d="M463 691l-16 -92h-92l16 92h92zM287 691l-16 -92h-92l16 92h92zM483 308q0 -42 -10 -82h-359q-1 -9 -1 -27q0 -63 34 -101t94 -38q39 0 70.5 22t48.5 60h88q-23 -72 -81.5 -113.5t-134.5 -41.5q-115 0 -171 90q-35 58 -35 134q0 68 24.5 132.5t69.5 108.5q67 67 165 67
q89 0 143 -58q55 -59 55 -153zM397 318q0 55 -31 92t-86 37q-57 0 -102 -47q-36 -36 -53 -101h271q1 7 1 19z" />
    <glyph glyph-name="igrave" unicode="&#xec;" horiz-adv-x="269" 
d="M274 598l-35 -45l-168 99l54 69zM205 506l-90 -506h-87l90 506h87z" />
    <glyph glyph-name="iacute" unicode="&#xed;" horiz-adv-x="269" 
d="M301 650l-202 -99l-25 50l192 122zM206 506l-90 -506h-88l90 506h88z" />
    <glyph glyph-name="icircumflex" unicode="&#xee;" horiz-adv-x="269" 
d="M327 597l-50 -45l-88 115l-127 -115l-40 45l148 131h55zM206 506l-90 -506h-88l90 506h88z" />
    <glyph glyph-name="idieresis" unicode="&#xef;" horiz-adv-x="269" 
d="M326 691l-16 -92h-92l16 92h92zM150 691l-16 -92h-92l16 92h92zM205 506l-90 -506h-87l90 506h87z" />
    <glyph glyph-name="eth" unicode="&#xf0;" horiz-adv-x="547" 
d="M484 308q0 -59 -15.5 -114.5t-45.5 -102.5t-80.5 -75.5t-113.5 -28.5q-94 0 -151 68q-48 57 -48 143q0 59 15.5 114.5t45.5 102.5t80.5 75.5t113.5 28.5q27 0 56 -8l-27 77h-120l11 59h85l-27 75h82l29 -75h102l-11 -59h-67l72 -198q14 -37 14 -82zM397 306
q0 59 -30.5 99.5t-88.5 40.5q-56 0 -94.5 -43t-52.5 -95.5t-14 -107.5q0 -59 30.5 -99.5t88.5 -40.5q56 0 94.5 43t52.5 95.5t14 107.5z" />
    <glyph glyph-name="ntilde" unicode="&#xf1;" horiz-adv-x="591" 
d="M512 647q-52 -54 -111 -54q-32 0 -68.5 21t-55.5 21q-33 0 -66 -28l-32 42q58 54 111 54q29 0 65.5 -22t58.5 -22q36 0 68 30zM496 382q0 -21 -8 -72l-55 -310h-85l54 304q7 38 7 56q0 42 -19 61q-23 23 -66 23q-35 0 -68 -22t-54 -54q-33 -50 -45 -121l-44 -247h-85
l89 506h69v-70q27 38 72.5 60.5t91.5 22.5q71 0 111 -40q35 -35 35 -97z" />
    <glyph glyph-name="ograve" unicode="&#xf2;" horiz-adv-x="542" 
d="M420 598l-35 -45l-168 99l54 69zM480 308q0 -59 -15.5 -114.5t-45.5 -102.5t-80.5 -75.5t-113.5 -28.5q-94 0 -150 67q-49 58 -49 144q0 59 15.5 114.5t45.5 102.5t80.5 75.5t113.5 28.5q94 0 150 -67q49 -58 49 -144zM393 306q0 60 -30 100t-89 40q-56 0 -94.5 -43
t-52.5 -95.5t-14 -107.5q0 -60 30 -100t89 -40q56 0 94.5 43t52.5 95.5t14 107.5z" />
    <glyph glyph-name="oacute" unicode="&#xf3;" horiz-adv-x="542" 
d="M438 653l-202 -99l-25 50l192 122zM480 308q0 -59 -15.5 -114.5t-45.5 -102.5t-80.5 -75.5t-113.5 -28.5q-94 0 -150 67q-49 58 -49 144q0 59 15.5 114.5t45.5 102.5t80.5 75.5t113.5 28.5q94 0 150 -67q49 -58 49 -144zM393 306q0 60 -30 100t-89 40q-56 0 -94.5 -43
t-52.5 -95.5t-14 -107.5q0 -60 30 -100t89 -40q56 0 94.5 43t52.5 95.5t14 107.5z" />
    <glyph glyph-name="ocircumflex" unicode="&#xf4;" horiz-adv-x="542" 
d="M462 600l-50 -45l-88 115l-127 -115l-40 45l148 131h55zM480 308q0 -59 -15.5 -114.5t-45.5 -102.5t-80.5 -75.5t-113.5 -28.5q-94 0 -150 67q-49 58 -49 144q0 59 15.5 114.5t45.5 102.5t80.5 75.5t113.5 28.5q94 0 150 -67q49 -58 49 -144zM393 306q0 60 -30 100
t-89 40q-56 0 -94.5 -43t-52.5 -95.5t-14 -107.5q0 -60 30 -100t89 -40q56 0 94.5 43t52.5 95.5t14 107.5z" />
    <glyph glyph-name="otilde" unicode="&#xf5;" horiz-adv-x="542" 
d="M497 653q-52 -54 -111 -54q-32 0 -68.5 21t-55.5 21q-33 0 -66 -28l-32 42q58 54 111 54q29 0 65.5 -22t58.5 -22q36 0 68 30zM480 308q0 -59 -15.5 -114.5t-45.5 -102.5t-80.5 -75.5t-113.5 -28.5q-94 0 -150 67q-49 58 -49 144q0 59 15.5 114.5t45.5 102.5t80.5 75.5
t113.5 28.5q94 0 150 -67q49 -58 49 -144zM393 306q0 60 -30 100t-89 40q-56 0 -94.5 -43t-52.5 -95.5t-14 -107.5q0 -60 30 -100t89 -40q56 0 94.5 43t52.5 95.5t14 107.5z" />
    <glyph glyph-name="odieresis" unicode="&#xf6;" horiz-adv-x="542" 
d="M459 691l-16 -92h-92l16 92h92zM283 691l-16 -92h-92l16 92h92zM480 308q0 -59 -15.5 -114.5t-45.5 -102.5t-80.5 -75.5t-113.5 -28.5q-94 0 -150 67q-49 58 -49 144q0 59 15.5 114.5t45.5 102.5t80.5 75.5t113.5 28.5q94 0 150 -67q49 -58 49 -144zM393 306
q0 60 -30 100t-89 40q-56 0 -94.5 -43t-52.5 -95.5t-14 -107.5q0 -60 30 -100t89 -40q56 0 94.5 43t52.5 95.5t14 107.5z" />
    <glyph glyph-name="divide" unicode="&#xf7;" horiz-adv-x="648" 
d="M371 442h-114v118h114v-118zM567 261h-502v78h502v-78zM371 48h-114v118h114v-118z" />
    <glyph glyph-name="oslash" unicode="&#xf8;" horiz-adv-x="546" 
d="M484 557l-61 -96q57 -58 57 -153q0 -59 -15.5 -114.5t-45.5 -102.5t-80.5 -75.5t-113.5 -28.5q-48 0 -90 20l-54 -84l-44 29l54 85q-6 5 -16 17q-49 58 -49 144q0 59 15.5 114.5t45.5 102.5t80.5 75.5t113.5 28.5q55 0 101 -26l59 92zM393 306q0 47 -17 80l-200 -313
q26 -13 56 -13q56 0 94.5 43t52.5 95.5t14 107.5zM340 427q-27 19 -66 19q-56 0 -94.5 -43t-52.5 -95.5t-14 -107.5q0 -54 24 -92z" />
    <glyph glyph-name="ugrave" unicode="&#xf9;" horiz-adv-x="574" 
d="M416 598l-35 -45l-168 99l54 69zM509 506l-89 -506h-70v65q-24 -37 -65.5 -57.5t-83.5 -20.5q-64 0 -105 36q-47 41 -47 117q0 26 4 50l56 316h85l-55 -311q-3 -19 -3 -38q0 -44 24 -70q23 -25 67 -25q61 0 110 72q28 41 43 125l44 247h85z" />
    <glyph glyph-name="uacute" unicode="&#xfa;" horiz-adv-x="574" 
d="M451 652l-202 -99l-25 50l192 122zM509 506l-89 -506h-70v65q-24 -37 -65.5 -57.5t-83.5 -20.5q-64 0 -105 36q-47 41 -47 117q0 26 4 50l56 316h85l-55 -311q-3 -19 -3 -38q0 -44 24 -70q23 -25 67 -25q61 0 110 72q28 41 43 125l44 247h85z" />
    <glyph glyph-name="ucircumflex" unicode="&#xfb;" horiz-adv-x="574" 
d="M480 605l-50 -45l-88 115l-127 -115l-40 45l148 131h55zM509 506l-89 -506h-70v65q-24 -37 -65.5 -57.5t-83.5 -20.5q-64 0 -105 36q-47 41 -47 117q0 26 4 50l56 316h85l-55 -311q-3 -19 -3 -38q0 -44 24 -70q23 -25 67 -25q61 0 110 72q28 41 43 125l44 247h85z" />
    <glyph glyph-name="udieresis" unicode="&#xfc;" horiz-adv-x="574" 
d="M480 691l-16 -92h-92l16 92h92zM304 691l-16 -92h-92l16 92h92zM509 506l-89 -506h-70v65q-24 -37 -65.5 -57.5t-83.5 -20.5q-64 0 -105 36q-47 41 -47 117q0 26 4 50l56 316h85l-55 -311q-3 -19 -3 -38q0 -44 24 -70q23 -25 67 -25q61 0 110 72q28 41 43 125l44 247h85z
" />
    <glyph glyph-name="yacute" unicode="&#xfd;" horiz-adv-x="497" 
d="M425 652l-202 -99l-25 50l192 122zM511 506l-347 -633q-48 -87 -125 -87q-57 0 -103 30l14 72q39 -24 75 -24q43 0 65 40l56 102l-111 500h89l82 -396l211 396h94z" />
    <glyph glyph-name="thorn" unicode="&#xfe;" horiz-adv-x="582" 
d="M517 303q0 -77 -25.5 -147t-82.5 -119.5t-135 -49.5q-46 0 -87.5 21.5t-62.5 62.5l-50 -288h-84l165 939h85l-46 -266q51 63 141 63q40 0 77 -18t60 -49q45 -60 45 -149zM430 303q0 61 -27.5 103.5t-85.5 42.5q-42 0 -77 -27q-68 -51 -84 -176q-3 -20 -3 -40
q0 -62 29 -103.5t90 -41.5q48 0 88 38q70 66 70 204z" />
    <glyph glyph-name="ydieresis" unicode="&#xff;" horiz-adv-x="497" 
d="M434 691l-16 -92h-92l16 92h92zM258 691l-16 -92h-92l16 92h92zM511 506l-347 -633q-48 -87 -130 -87q-51 0 -98 31l12 66q39 -24 74 -24q43 0 65 40l59 107l-111 500h89l82 -396l211 396h94z" />
    <glyph glyph-name="dotlessi" unicode="&#x131;" horiz-adv-x="269" 
d="M206 506l-90 -506h-88l90 506h88z" />
    <glyph glyph-name="Lslash" unicode="&#x141;" horiz-adv-x="532" 
d="M481 83l-15 -83h-431l52 295l-70 -39l-24 52l107 60l60 341h90l-50 -285l141 79l24 -53l-178 -99l-47 -268h341z" />
    <glyph glyph-name="lslash" unicode="&#x142;" horiz-adv-x="337" 
d="M332 466l-126 -70l-49 -281q-4 -21 5.5 -33.5t30.5 -12.5t40 6l-12 -70q-27 -11 -60 -11q-53 0 -76 34.5t-14 83.5l41 231l-63 -35l-24 52l99 56l54 306h85l-44 -253l89 50z" />
    <glyph glyph-name="OE" unicode="&#x152;" horiz-adv-x="1014" 
d="M1025 709l-14 -82h-366l-39 -216h313l-15 -84h-311l-44 -245h370l-13 -82h-461l9 52q-62 -65 -166 -65q-115 0 -181.5 75t-66.5 191q0 62 11 124.5t36 125.5t61.5 111t93 78t125.5 30q59 0 109.5 -25t77.5 -72l15 84h456zM519 451q0 82 -39 134t-118 52
q-60 0 -107.5 -39.5t-73 -100t-38 -122.5t-12.5 -117q0 -82 41 -134t121 -52q62 0 108.5 39t70.5 100.5t35.5 122t11.5 117.5z" />
    <glyph glyph-name="oe" unicode="&#x153;" horiz-adv-x="882" 
d="M826 308q0 -46 -9 -82h-353q-1 -9 -1 -27q0 -64 32.5 -101.5t92.5 -37.5q80 0 116 82h88q-23 -72 -80.5 -113.5t-132.5 -41.5q-57 0 -104.5 30t-67.5 81q-34 -57 -81 -84q-49 -27 -108 -27q-87 0 -144 68q-48 57 -48 143q0 75 24 144.5t71 114.5q64 62 157 62
q44 0 87 -23q53 -30 76 -83q25 40 65 67q56 39 126 39q86 0 140 -58t54 -153zM741 318q0 56 -29.5 92.5t-84.5 36.5q-58 0 -102 -46q-36 -36 -51 -102h266q1 7 1 19zM387 306q0 60 -29.5 100t-86.5 40q-43 0 -75 -24t-49.5 -63t-25.5 -79t-8 -80q0 -60 29.5 -100t86.5 -40
q42 0 79 30q40 33 59.5 94t19.5 122z" />
    <glyph glyph-name="Scaron" unicode="&#x160;" horiz-adv-x="629" 
d="M542 889l-148 -131h-55l-102 131l53 45l88 -115l127 115zM595 496h-93q0 43 -21 77q-41 66 -136 66q-71 0 -115 -40q-40 -35 -40 -85q0 -76 89 -97l113 -28q76 -19 120 -67t44 -115q0 -89 -58 -145q-75 -75 -208 -75q-142 0 -216 90q-53 66 -53 159h93q0 -66 36 -109
q49 -58 151 -58q80 0 126 45q35 33 35 82q0 37 -25 65.5t-75 41.5l-108 27q-72 18 -114.5 61.5t-42.5 114.5q0 101 87 164q70 51 170 51q131 0 198 -89q43 -57 43 -136z" />
    <glyph glyph-name="scaron" unicode="&#x161;" horiz-adv-x="511" 
d="M472 683l-148 -131h-55l-102 131l50 45l88 -115l127 115zM458 354h-86q0 32 -20 57q-30 38 -92 38q-56 0 -86 -33q-20 -22 -20 -50q0 -24 16 -39t38 -20q59 -13 118 -29q47 -12 76 -45t29 -79q0 -74 -58 -121q-56 -46 -146 -46q-121 0 -179 73q-32 40 -32 92v18h85v-14
q0 -38 33 -67q35 -31 98 -31q52 0 87 30q26 23 26 55q0 50 -64 65q-14 3 -96 23q-50 12 -78 39q-36 34 -37 82q-1 74 59 123q55 44 139 44q51 0 97 -20.5t69 -60.5q24 -42 24 -84z" />
    <glyph glyph-name="Ydieresis" unicode="&#x178;" horiz-adv-x="555" 
d="M486 870l-16 -92h-92l16 92h92zM310 870l-16 -92h-92l16 92h92zM618 709l-313 -422l-50 -287h-91l52 287l-161 422h91l127 -337l244 337h101z" />
    <glyph glyph-name="Zcaron" unicode="&#x17d;" horiz-adv-x="612" 
d="M537 889l-148 -131h-55l-102 131l53 45l88 -115l127 115zM613 709l-16 -90l-494 -536h409l-15 -83h-516l16 89l493 537h-395l15 83h503z" />
    <glyph glyph-name="zcaron" unicode="&#x17e;" horiz-adv-x="492" 
d="M437 671l-133 -118h-50l-92 118l48 40l79 -103l114 103zM470 506l-14 -75l-350 -357h294l-14 -74h-400l14 75l350 357h-287l13 74h394z" />
    <glyph glyph-name="florin" unicode="&#x192;" horiz-adv-x="523" 
d="M485 635q-42 6 -58 6q-67 0 -85 -89l-23 -115h141v-75h-156l-67 -339q-13 -63 -54 -100.5t-94 -37.5q-39 0 -75 8v75q42 -6 58 -6q67 0 85 89l62 311h-102v75h117l28 143q13 63 54 100.5t94 37.5q39 0 75 -8v-75z" />
    <glyph glyph-name="circumflex" unicode="&#x2c6;" horiz-adv-x="351" 
d="M369 597l-50 -45l-88 115l-127 -115l-40 45l148 131h55z" />
    <glyph glyph-name="caron" unicode="&#x2c7;" horiz-adv-x="364" 
d="M412 885l-148 -131h-55l-102 131l53 45l88 -115l127 115z" />
    <glyph glyph-name="breve" unicode="&#x2d8;" horiz-adv-x="348" 
d="M399 720q-18 -72 -67.5 -114t-122.5 -42q-60 0 -100 37.5t-40 97.5q0 14 1 21h66v-11q0 -36 22.5 -58.5t58.5 -22.5q84 0 111 92h71z" />
    <glyph glyph-name="dotaccent" unicode="&#x2d9;" horiz-adv-x="271" 
d="M250 722l-18 -100h-100l18 100h100z" />
    <glyph glyph-name="ring" unicode="&#x2da;" horiz-adv-x="216" 
d="M271 670q0 -43 -30 -75t-80 -32t-80 32t-30 75t30 75t80 32t80 -32t30 -75zM215 670q0 23 -15 39.5t-39 16.5t-39.5 -16.5t-15.5 -39.5t15.5 -39t39.5 -16t39 16t15 39z" />
    <glyph glyph-name="ogonek" unicode="&#x2db;" horiz-adv-x="170" 
d="M90 -193l-92 -41l-38 176h76z" />
    <glyph glyph-name="tilde" unicode="&#x2dc;" horiz-adv-x="356" 
d="M396 647q-52 -54 -111 -54q-32 0 -68.5 21t-55.5 21q-33 0 -66 -28l-32 42q58 54 111 54q29 0 65.5 -22t58.5 -22q36 0 68 30z" />
    <glyph glyph-name="hungarumlaut" unicode="&#x2dd;" horiz-adv-x="455" 
d="M500 657l-206 -104l-24 47l193 129zM287 657l-206 -104l-24 47l193 129z" />
    <glyph glyph-name="pi" unicode="&#x3c0;" horiz-adv-x="636" 
d="M560 4q-28 -11 -67 -11q-56 0 -82.5 36t-26.5 89v320h-3h-164v-439h-84v439h-78v68h491v-68h-77v-310q0 -62 46 -62q33 0 45 5v-67z" />
    <glyph glyph-name="endash" unicode="&#x2013;" horiz-adv-x="651" 
d="M581 341l-14 -79h-515l14 79h515z" />
    <glyph glyph-name="emdash" unicode="&#x2014;" horiz-adv-x="1121" 
d="M1051 341l-14 -79h-985l14 79h985z" />
    <glyph glyph-name="quoteleft" unicode="&#x2018;" horiz-adv-x="271" 
d="M245 672q-70 -28 -84 -110h63l-21 -117h-123l21 117q20 115 126 157z" />
    <glyph glyph-name="quoteright" unicode="&#x2019;" horiz-adv-x="261" 
d="M257 709l-21 -117q-20 -115 -126 -157l-18 47q41 17 58.5 41.5t25.5 68.5h-63l21 117h123z" />
    <glyph glyph-name="quotesinglbase" unicode="&#x201a;" horiz-adv-x="275" 
d="M162 117l-21 -117q-20 -115 -126 -157l-18 47q41 17 58.5 41.5t25.5 68.5h-63l21 117h123z" />
    <glyph glyph-name="quotedblleft" unicode="&#x201c;" horiz-adv-x="468" 
d="M444 672q-70 -28 -84 -110h63l-21 -117h-123l21 117q20 115 126 157zM247 672q-70 -28 -84 -110h63l-21 -117h-123l21 117q20 115 126 157z" />
    <glyph glyph-name="quotedblright" unicode="&#x201d;" horiz-adv-x="458" 
d="M453 709l-21 -117q-20 -115 -126 -157l-18 47q41 17 58.5 41.5t25.5 68.5h-63l21 117h123zM256 709l-21 -117q-20 -115 -126 -157l-18 47q41 17 58.5 41.5t25.5 68.5h-63l21 117h123z" />
    <glyph glyph-name="quotedblbase" unicode="&#x201e;" horiz-adv-x="488" 
d="M364 117l-21 -117q-20 -115 -126 -157l-18 47q41 17 58.5 41.5t25.5 68.5h-63l21 117h123zM166 117l-21 -117q-20 -115 -126 -157l-18 47q41 17 58.5 41.5t25.5 68.5h-63l21 117h123z" />
    <glyph glyph-name="dagger" unicode="&#x2020;" horiz-adv-x="562" 
d="M536 506l-13 -73h-186l-99 -558h-83l99 558h-187l13 73h187l36 203h83l-36 -203h186z" />
    <glyph glyph-name="daggerdbl" unicode="&#x2021;" horiz-adv-x="562" 
d="M531 506l-12 -73h-187l-50 -282h187l-13 -73h-187l-36 -203h-1h-80h-1l36 203h-187l13 73h187l50 282h-187l12 73h187l36 203h1h80h1l-36 -203h187z" />
    <glyph glyph-name="bullet" unicode="&#x2022;" horiz-adv-x="441" 
d="M336 292q0 -54 -37 -92.5t-90 -38.5t-90.5 38.5t-37.5 92.5t37.5 92.5t90.5 38.5t90 -38.5t37 -92.5z" />
    <glyph glyph-name="ellipsis" unicode="&#x2026;" horiz-adv-x="801" 
d="M685 115l-21 -115h-116l21 115h116zM416 115l-21 -115h-115l21 115h115zM148 115l-21 -115h-115l21 115h115z" />
    <glyph glyph-name="perthousand" unicode="&#x2030;" horiz-adv-x="1171" 
d="M1087 203q0 -104 -53 -161q-51 -55 -119 -55q-63 0 -101.5 40.5t-38.5 103.5q0 44 13.5 89t39.5 73q51 54 120 54q63 0 101 -40.5t38 -103.5zM401 579q0 -104 -53 -161q-51 -55 -119 -55q-63 0 -101.5 40t-38.5 103q0 44 13.5 89t39.5 73q51 55 120 55q63 0 101 -40.5
t38 -103.5zM761 685l-643 -709l-44 44l643 708zM736 203q0 -44 -14 -88.5t-40 -72.5q-51 -55 -119 -55q-63 0 -101.5 40.5t-38.5 103.5q0 43 14 88t40 74q51 54 119 54q63 0 101.5 -40.5t38.5 -103.5zM1015 201q0 38 -18 60.5t-54 22.5q-28 0 -49 -18q-23 -20 -35.5 -58.5
t-12.5 -74.5q0 -37 18 -60t55 -23q28 0 49 18q23 19 35 57.5t12 75.5zM329 577q0 38 -18 60.5t-54 22.5q-28 0 -49 -18q-23 -20 -35.5 -58.5t-12.5 -74.5q0 -37 18 -60t55 -23q28 0 49 18q23 19 35 57.5t12 75.5zM663 201q0 38 -18 60.5t-54 22.5q-28 0 -49 -18
q-23 -19 -35 -57.5t-12 -75.5t18 -60t55 -23q27 0 48 18q23 19 35 57.5t12 75.5z" />
    <glyph glyph-name="guilsinglleft" unicode="&#x2039;" horiz-adv-x="313" 
d="M288 485l-152 -189l85 -195l-61 -34l-127 233l205 228z" />
    <glyph glyph-name="guilsinglright" unicode="&#x203a;" horiz-adv-x="313" 
d="M264 296l-205 -228l-50 43l152 189l-85 194l62 33z" />
    <glyph glyph-name="fraction" unicode="&#x2044;" horiz-adv-x="584" 
d="M577 685l-516 -706l-54 41l515 704z" />
    <glyph glyph-name="Euro" unicode="&#x20ac;" horiz-adv-x="582" 
d="M615 633l-45 -69q-62 64 -157 64q-84 0 -144 -63q-40 -43 -63 -117h285l-38 -61h-263q-7 -29 -11 -79h230l-38 -61h-195q0 -82 49.5 -131.5t132.5 -49.5q71 0 132 38l20 -74q-73 -44 -157 -44q-118 0 -190 72t-75 189h-82l11 61h74q0 30 11 79h-71l11 61h74
q29 108 100 177q85 83 202 83q122 0 197 -75z" />
    <glyph glyph-name="recordright" unicode="&#x2117;" horiz-adv-x="858" 
d="M790 355q0 -155 -103.5 -261.5t-257.5 -106.5t-257.5 106t-103.5 261t103.5 261.5t257.5 106.5t257.5 -106t103.5 -261zM723 355q0 133 -81.5 218t-212.5 85t-212.5 -85.5t-81.5 -218.5t81.5 -218t212.5 -85t212.5 85.5t81.5 218.5zM593 421q0 -57 -39.5 -91t-96.5 -34
h-74v-135h-67v383h141q57 0 96.5 -33.5t39.5 -89.5zM523 421q0 28 -19 44.5t-47 16.5h-75v-124h75q31 0 48.5 16t17.5 47z" />
    <glyph glyph-name="trademark" unicode="&#x2122;" horiz-adv-x="833" 
d="M823 709l-69 -391h-69l56 320l-160 -310h-49l-50 309l-56 -319h-69l69 391h105l42 -280l142 280h108zM371 709l-11 -62h-110l-58 -329h-69l58 329h-111l11 62h290z" />
    <glyph glyph-name="arrowleft" unicode="&#x2190;" horiz-adv-x="853" 
d="M782 269h-604l235 -232l-48 -50l-320 318l320 318l48 -50l-235 -232h604v-72z" />
    <glyph glyph-name="arrowright" unicode="&#x2192;" horiz-adv-x="853" 
d="M792 305l-319 -318l-48 50l234 232h-604v72h604l-234 232l48 50z" />
    <glyph glyph-name="arrowupleft" unicode="&#x2196;" horiz-adv-x="659" 
d="M627 215l-51 -51l-427 427v-331h-70v449h451v-67h-330z" />
    <glyph glyph-name="arrowupright" unicode="&#x2197;" horiz-adv-x="659" 
d="M588 260h-70v331l-427 -427l-51 51l427 427h-331v67h452v-449z" />
    <glyph glyph-name="product" unicode="&#x220f;" horiz-adv-x="808" 
d="M745 867q0 -8 -6 -14.5t-14 -6.5t-14.5 6.5t-6.5 14.5t6.5 14t14.5 6t14 -6t6 -14zM744 615q0 -9 -6.5 -15t-15.5 -6q-19 0 -19 21q0 8 6.5 14.5t14.5 6.5t14 -6.5t6 -14.5zM490 867q0 -8 -6.5 -14.5t-14.5 -6.5t-14.5 6.5t-6.5 14.5t6.5 14t14.5 6t14.5 -6t6.5 -14z
M618 737q0 -8 -6 -14t-14 -6t-14.5 6t-6.5 14t6.5 14.5t14.5 6.5t14 -6.5t6 -14.5zM742 365q0 -8 -6.5 -14.5t-14.5 -6.5t-14.5 6.5t-6.5 14.5t6.5 14t14.5 6t14.5 -6t6.5 -14zM489 615q0 -8 -6.5 -14.5t-14.5 -6.5t-14.5 6.5t-6.5 14.5t6.5 14.5t14.5 6.5t14.5 -6.5
t6.5 -14.5zM617 486q0 -8 -6.5 -14.5t-14.5 -6.5t-14 6.5t-6 14.5t6 14.5t14 6.5t14.5 -6.5t6.5 -14.5zM235 867q0 -8 -6.5 -14.5t-14.5 -6.5t-14 6.5t-6 14.5t6 14t14 6t14.5 -6t6.5 -14zM363 737q0 -8 -6.5 -14t-14.5 -6t-14.5 6t-6.5 14t6.5 14.5t14.5 6.5t14.5 -6.5
t6.5 -14.5zM743 113q0 -8 -6.5 -14.5t-14.5 -6.5t-14.5 6.5t-6.5 14.5t6.5 14.5t14.5 6.5t14.5 -6.5t6.5 -14.5zM486 365q0 -8 -6.5 -14.5t-14.5 -6.5t-14.5 6.5t-6.5 14.5t6.5 14t14.5 6t14.5 -6t6.5 -14zM614 236q0 -8 -6 -14.5t-14 -6.5t-14.5 6.5t-6.5 14.5t6.5 14
t14.5 6t14 -6t6 -14zM234 615q0 -8 -6.5 -14.5t-14.5 -6.5t-14.5 6.5t-6.5 14.5t6.5 14.5t14.5 6.5t14.5 -6.5t6.5 -14.5zM361 486q0 -8 -6 -14.5t-14 -6.5t-14.5 6.5t-6.5 14.5t6.5 14.5t14.5 6.5t14 -6.5t6 -14.5zM108 737q0 -8 -6.5 -14t-14.5 -6t-14.5 6t-6.5 14
t6.5 14.5t14.5 6.5t14.5 -6.5t6.5 -14.5zM743 -139q0 -8 -6.5 -14.5t-14.5 -6.5t-14.5 6.5t-6.5 14.5t6.5 14.5t14.5 6.5t14.5 -6.5t6.5 -14.5zM487 113q0 -8 -6.5 -14.5t-14.5 -6.5t-14.5 6.5t-6.5 14.5t6.5 14.5t14.5 6.5t14.5 -6.5t6.5 -14.5zM615 -16q0 -8 -6 -14.5
t-14 -6.5t-14.5 6.5t-6.5 14.5t6.5 14.5t14.5 6.5t14 -6.5t6 -14.5zM231 365q0 -8 -6.5 -14.5t-14.5 -6.5t-14 6.5t-6 14.5t6 14t14 6t14.5 -6t6.5 -14zM359 236q0 -8 -6.5 -14.5t-14.5 -6.5t-14.5 6.5t-6.5 14.5t6.5 14t14.5 6t14.5 -6t6.5 -14zM107 486q0 -8 -6.5 -14.5
t-14.5 -6.5t-14.5 6.5t-6.5 14.5t6.5 14.5t14.5 6.5t14.5 -6.5t6.5 -14.5zM487 -139q0 -8 -6.5 -14.5t-14.5 -6.5t-14.5 6.5t-6.5 14.5t6.5 14.5t14.5 6.5t14.5 -6.5t6.5 -14.5zM615 -268q0 -8 -6 -14.5t-14 -6.5t-14.5 6.5t-6.5 14.5t6.5 14t14.5 6t14 -6t6 -14zM232 113
q0 -8 -6 -14.5t-14 -6.5t-14.5 6.5t-6.5 14.5t6.5 14.5t14.5 6.5t14 -6.5t6 -14.5zM360 -16q0 -8 -6.5 -14.5t-14.5 -6.5t-14.5 6.5t-6.5 14.5t6.5 14.5t14.5 6.5t14.5 -6.5t6.5 -14.5zM104 236q0 -8 -6.5 -14.5t-14.5 -6.5t-14 6.5t-6 14.5t6 14t14 6t14.5 -6t6.5 -14z
M232 -139q0 -8 -6.5 -14.5t-14.5 -6.5t-14 6.5t-6 14.5t6 14.5t14 6.5t14.5 -6.5t6.5 -14.5zM360 -268q0 -8 -6.5 -14.5t-14.5 -6.5t-14.5 6.5t-6.5 14.5t6.5 14t14.5 6t14.5 -6t6.5 -14zM105 -16q0 -8 -6.5 -14.5t-14.5 -6.5t-14 6.5t-6 14.5t6 14.5t14 6.5t14.5 -6.5
t6.5 -14.5zM105 -268q0 -8 -6.5 -14.5t-14.5 -6.5t-14.5 6.5t-6.5 14.5t6.5 14t14.5 6t14.5 -6t6.5 -14z" />
    <glyph glyph-name="minus" unicode="&#x2212;" horiz-adv-x="641" 
d="M559 262h-515v79h515v-79z" />
    <glyph glyph-name="radical" unicode="&#x221a;" horiz-adv-x="642" 
d="M696 766h-110l-259 -774h-77l-179 512h91l127 -385l230 713h177v-66z" />
    <glyph glyph-name="infinity" unicode="&#x221e;" horiz-adv-x="801" 
d="M746 303q0 -70 -47 -117.5t-120 -47.5q-47 0 -86.5 25.5t-91.5 77.5q-46 -55 -86.5 -79.5t-89.5 -24.5q-73 0 -121.5 48t-48.5 118t48.5 118.5t121.5 48.5q48 0 89 -25.5t87 -80.5q46 55 87 80.5t91 25.5q73 0 120 -48.5t47 -118.5zM668 302q0 39 -26.5 65.5t-65.5 26.5
q-55 0 -132 -92q77 -92 132 -92q39 0 65.5 26.5t26.5 65.5zM358 302q-76 93 -131 93q-39 0 -67 -27t-28 -66t28 -65.5t67 -26.5q31 0 62 23t69 69z" />
    <glyph glyph-name="approxequal" unicode="&#x2248;" horiz-adv-x="651" 
d="M570 374q-47 -46 -80 -62t-73 -16q-39 0 -115 34q-55 24 -85 24q-25 0 -46.5 -9t-52.5 -39l-53 55q47 46 80 62t73 16q35 0 82 -18q9 -3 36 -14.5t42 -16.5q18 -7 39 -7q25 0 46.5 8.5t52.5 38.5zM570 184q-47 -46 -80 -62t-73 -16q-42 0 -115 33q-57 25 -85 25
q-25 0 -46.5 -9t-52.5 -39l-53 54q47 46 80 62t73 16q38 0 82 -17q9 -3 36 -14.5t42 -16.5q21 -8 39 -8q25 0 46.5 8.5t52.5 38.5z" />
    <glyph glyph-name="notequal" unicode="&#x2260;" horiz-adv-x="688" 
d="M585 134h-319l-83 -118l-50 35l58 83h-88v77h142l93 133h-235v77h289l79 113l50 -35l-55 -78h119v-77h-172l-94 -133h266v-77z" />
    <glyph glyph-name="blank" unicode="&#x2423;" horiz-adv-x="924" 
d="M793 -73h-776v221h47v-175h683v175h46v-221z" />
    <glyph glyph-name="ampersand.alt" unicode="&#xe026;" horiz-adv-x="717" 
d="M661 403l-13 -75h-111l-45 -252h110l-13 -76h-318q-86 0 -146.5 44.5t-60.5 128.5q0 67 44 121t110 78q-38 17 -61.5 54.5t-23.5 82.5q0 76 54 130q70 70 193 70q34 0 86 -13l-14 -77q-48 11 -80 11q-62 0 -104 -32.5t-42 -92.5q0 -47 35 -74.5t86 -27.5h117l20 115h86
l-20 -115h111zM451 328h-134q-68 0 -116 -43.5t-48 -104.5q0 -52 38 -78t93 -26h123z" />
    <glyph glyph-name="zero.alt" unicode="&#xe030;" 
d="M524 480q0 -63 -16 -152q-19 -104 -46.5 -175.5t-87.5 -119.5q-59 -46 -135 -46q-81 0 -139 51q-68 61 -68 178q0 58 17 152q12 69 23 111.5t39.5 96.5t70.5 87q58 46 135 46q93 0 149 -59q58 -61 58 -170zM436 518q-6 49 -36.5 81t-84.5 32q-37 0 -66.5 -18t-46.5 -42
t-31 -64.5t-19.5 -67t-12.5 -67.5q-1 -4 -1.5 -6.5t-0.5 -5.5q-14 -75 -17 -116zM434 426l-309 -269q6 -41 37 -66.5t80 -25.5q37 0 66.5 18t46.5 42t31 64.5t19.5 67t12.5 67.5q1 4 1.5 6.5t0.5 5.5q10 60 14 90z" />
    <glyph glyph-name="one.alt" unicode="&#xe031;" 
d="M450 78l-14 -78h-145h-88h-149l14 78h149l91 517l-185 -116l16 98l192 118h83l-109 -617h145z" />
    <glyph glyph-name="apple" unicode="&#xf8ff;" horiz-adv-x="588" 
d="M539 364q0 -41 -26.5 -67.5t-66.5 -26.5h-72q17 -23 17 -54q0 -40 -26.5 -66.5t-66.5 -26.5h-249v248q0 41 26.5 67.5t66.5 26.5q30 0 55 -17v71q0 41 26.5 67.5t66.5 26.5t66.5 -26.5t26.5 -67.5v-62h63q40 0 66.5 -26.5t26.5 -66.5zM522 364q0 34 -21 55t-55 21h-79v79
q0 34 -21.5 55.5t-55.5 21.5t-55 -21.5t-21 -55.5v-232h232q34 0 55 21.5t21 55.5z" />
    </font>
</defs>
</svg>
